<svg width="93" height="31" viewBox="0 0 93 31" fill="none" xmlns="http://www.w3.org/2000/svg">
<path d="M8.09 22.12C7.51 22.12 6.84 22.09 6.08 22.03C5.8 22.01 5.44 21.99 5 21.97C4.58 21.95 4.11 21.94 3.59 21.94L1.55 21.97C1.19 21.99 0.69 22 0.05 22C0.01 22 -0.01 21.94 -0.01 21.82C-0.01 21.7 0.01 21.64 0.05 21.64C0.81 21.64 1.36 21.59 1.7 21.49C2.06 21.39 2.3 21.2 2.42 20.92C2.56 20.62 2.63 20.17 2.63 19.57L2.63 5.68C2.63 5.08 2.57 4.64 2.45 4.36C2.33 4.08 2.09 3.89 1.73 3.79C1.39 3.67 0.84 3.61 0.0800001 3.61C0.0400001 3.61 0.0200001 3.55 0.0200001 3.43C0.0200001 3.31 0.0400001 3.25 0.0800001 3.25L1.58 3.28C2.42 3.32 3.09 3.34 3.59 3.34C4.35 3.34 5.1 3.31 5.84 3.25C6.72 3.21 7.33 3.19 7.67 3.19C9.75 3.19 11.59 3.59 13.19 4.39C14.81 5.19 16.06 6.28 16.94 7.66C17.82 9.04 18.26 10.59 18.26 12.31C18.26 14.25 17.8 15.97 16.88 17.47C15.98 18.95 14.75 20.1 13.19 20.92C11.63 21.72 9.93 22.12 8.09 22.12ZM7.79 21.67C9.39 21.67 10.81 21.34 12.05 20.68C13.29 20 14.25 19.01 14.93 17.71C15.63 16.39 15.98 14.81 15.98 12.97C15.98 11.23 15.65 9.65 14.99 8.23C14.33 6.81 13.39 5.69 12.17 4.87C10.95 4.05 9.54 3.64 7.94 3.64C7.08 3.64 6.41 3.69 5.93 3.79C5.47 3.89 5.13 4.09 4.91 4.39C4.69 4.69 4.58 5.14 4.58 5.74L4.58 19.24C4.58 19.84 4.66 20.31 4.82 20.65C5 20.99 5.32 21.25 5.78 21.43C6.26 21.59 6.93 21.67 7.79 21.67ZM32.1922 20.38C32.2722 20.38 32.3222 20.43 32.3422 20.53C32.3622 20.61 32.3322 20.67 32.2522 20.71L29.1622 22.18C29.0822 22.22 29.0022 22.24 28.9222 22.24C28.6622 22.24 28.4322 22.07 28.2322 21.73C28.0322 21.37 27.9022 20.89 27.8422 20.29L26.2822 21.31C25.7822 21.63 25.3422 21.86 24.9622 22C24.5822 22.14 24.1822 22.21 23.7622 22.21C23.0222 22.21 22.4422 22.02 22.0222 21.64C21.6222 21.24 21.4222 20.74 21.4222 20.14C21.4222 19.54 21.6622 19.02 22.1422 18.58C22.6222 18.14 23.4122 17.72 24.5122 17.32L27.8122 16.09V14.05C27.8122 11.81 27.1822 10.69 25.9222 10.69C25.2422 10.69 24.7222 10.92 24.3622 11.38C24.0222 11.82 23.7922 12.33 23.6722 12.91C23.6122 13.27 23.5022 13.57 23.3422 13.81C23.1822 14.03 22.9122 14.14 22.5322 14.14C22.2122 14.14 21.9622 14.05 21.7822 13.87C21.6222 13.69 21.5422 13.48 21.5422 13.24C21.5422 12.76 21.8522 12.28 22.4722 11.8C23.0922 11.32 23.8322 10.92 24.6922 10.6C25.5522 10.28 26.3222 10.12 27.0022 10.12C27.8222 10.12 28.4422 10.38 28.8622 10.9C29.2822 11.42 29.4922 12.17 29.4922 13.15V18.76C29.4922 19.46 29.5822 19.97 29.7622 20.29C29.9422 20.61 30.2422 20.77 30.6622 20.77C31.0422 20.77 31.5322 20.64 32.1322 20.38H32.1922ZM27.8122 19.87V19.72V16.51L25.0222 17.59C24.4622 17.81 24.0522 18.07 23.7922 18.37C23.5522 18.65 23.4322 18.99 23.4322 19.39C23.4322 19.87 23.5822 20.28 23.8822 20.62C24.2022 20.94 24.6122 21.1 25.1122 21.1C25.5122 21.1 25.9922 20.94 26.5522 20.62L27.8122 19.87ZM40.5605 10.15C41.0005 10.15 41.4205 10.27 41.8205 10.51C42.2205 10.75 42.4205 11.04 42.4205 11.38C42.4205 11.64 42.3305 11.86 42.1505 12.04C41.9905 12.22 41.7505 12.31 41.4305 12.31C41.2505 12.31 41.0905 12.28 40.9505 12.22C40.8305 12.14 40.6805 12.03 40.5005 11.89C40.3205 11.73 40.1505 11.61 39.9905 11.53C39.8305 11.45 39.6405 11.41 39.4205 11.41C39.1605 11.41 38.8805 11.52 38.5805 11.74C38.3005 11.96 37.8505 12.43 37.2305 13.15V19.57C37.2305 20.17 37.3005 20.61 37.4405 20.89C37.6005 21.17 37.8805 21.37 38.2805 21.49C38.6805 21.59 39.3005 21.64 40.1405 21.64C40.2205 21.64 40.2605 21.7 40.2605 21.82C40.2605 21.94 40.2205 22 40.1405 22C39.5005 22 38.9905 21.99 38.6105 21.97L36.3905 21.94L34.7405 21.97C34.4805 21.99 34.1205 22 33.6605 22C33.6005 22 33.5705 21.94 33.5705 21.82C33.5705 21.7 33.6005 21.64 33.6605 21.64C34.2005 21.64 34.6005 21.59 34.8605 21.49C35.1205 21.37 35.2905 21.17 35.3705 20.89C35.4705 20.61 35.5205 20.17 35.5205 19.57V13.63C35.5205 12.95 35.4405 12.46 35.2805 12.16C35.1205 11.86 34.8505 11.71 34.4705 11.71C34.1505 11.71 33.6105 11.86 32.8505 12.16H32.7905C32.7105 12.16 32.6505 12.12 32.6105 12.04C32.5905 11.94 32.6205 11.87 32.7005 11.83L36.1805 10.18L36.3605 10.15C36.5405 10.15 36.7305 10.38 36.9305 10.84C37.1305 11.3 37.2305 11.89 37.2305 12.61V12.64C38.0505 11.68 38.7005 11.03 39.1805 10.69C39.6605 10.33 40.1205 10.15 40.5605 10.15ZM44.4383 22C44.3783 22 44.3483 21.94 44.3483 21.82C44.3483 21.7 44.3783 21.64 44.4383 21.64C44.9783 21.64 45.3783 21.59 45.6383 21.49C45.8983 21.37 46.0783 21.17 46.1783 20.89C46.2783 20.59 46.3283 20.15 46.3283 19.57V4.06C46.3283 3.34 46.2583 2.82 46.1183 2.5C45.9783 2.18 45.7283 2.02 45.3683 2.02C45.0683 2.02 44.6083 2.16 43.9883 2.44H43.9283C43.8683 2.44 43.8183 2.39 43.7783 2.29C43.7583 2.19 43.7783 2.13 43.8383 2.11L47.6783 0.279999C47.7183 0.259999 47.7683 0.249999 47.8283 0.249999C47.8683 0.249999 47.9183 0.279999 47.9783 0.339998C48.0583 0.379999 48.0983 0.429999 48.0983 0.49L48.0983 19.57C48.0983 20.15 48.1383 20.58 48.2183 20.86C48.3183 21.14 48.4983 21.34 48.7583 21.46C49.0183 21.58 49.4183 21.64 49.9583 21.64C50.0183 21.64 50.0483 21.7 50.0483 21.82C50.0483 21.94 50.0183 22 49.9583 22C49.5183 22 49.1583 21.99 48.8783 21.97L47.1983 21.94L45.5783 21.97C45.2983 21.99 44.9183 22 44.4383 22ZM55.0827 6.64C54.6627 6.64 54.3327 6.53 54.0927 6.31C53.8727 6.09 53.7627 5.78 53.7627 5.38C53.7627 4.98 53.8727 4.67 54.0927 4.45C54.3327 4.23 54.6627 4.12 55.0827 4.12C55.4827 4.12 55.7927 4.23 56.0127 4.45C56.2327 4.67 56.3427 4.98 56.3427 5.38C56.3427 5.78 56.2327 6.09 56.0127 6.31C55.7927 6.53 55.4827 6.64 55.0827 6.64ZM52.5627 22C52.5227 22 52.5027 21.94 52.5027 21.82C52.5027 21.7 52.5227 21.64 52.5627 21.64C53.1027 21.64 53.5027 21.59 53.7627 21.49C54.0427 21.37 54.2327 21.17 54.3327 20.89C54.4327 20.59 54.4827 20.15 54.4827 19.57V13.96C54.4827 13.24 54.4027 12.72 54.2427 12.4C54.1027 12.08 53.8527 11.92 53.4927 11.92C53.1327 11.92 52.6827 12.06 52.1427 12.34H52.1127C52.0327 12.34 51.9727 12.29 51.9327 12.19C51.8927 12.09 51.9027 12.02 51.9627 11.98L55.8627 10.18L55.9827 10.15C56.0227 10.15 56.0727 10.18 56.1327 10.24C56.1927 10.28 56.2227 10.33 56.2227 10.39C56.2227 10.53 56.2127 10.93 56.1927 11.59C56.1727 12.25 56.1627 13.03 56.1627 13.93V19.57C56.1627 20.17 56.2127 20.61 56.3127 20.89C56.4127 21.17 56.5927 21.37 56.8527 21.49C57.1127 21.59 57.5127 21.64 58.0527 21.64C58.1127 21.64 58.1427 21.7 58.1427 21.82C58.1427 21.94 58.1127 22 58.0527 22C57.5927 22 57.2227 21.99 56.9427 21.97L55.3227 21.94L53.7027 21.97C53.4227 21.99 53.0427 22 52.5627 22ZM74.0258 21.64C74.0858 21.64 74.1158 21.7 74.1158 21.82C74.1158 21.94 74.0858 22 74.0258 22C73.5658 22 73.2058 21.99 72.9458 21.97L71.3258 21.94L69.6758 21.97C69.4158 21.99 69.0558 22 68.5958 22C68.5358 22 68.5058 21.94 68.5058 21.82C68.5058 21.7 68.5358 21.64 68.5958 21.64C69.1358 21.64 69.5358 21.59 69.7958 21.49C70.0558 21.37 70.2258 21.17 70.3058 20.89C70.4058 20.61 70.4558 20.17 70.4558 19.57L70.4558 14.71C70.4558 13.53 70.2258 12.66 69.7658 12.1C69.3258 11.54 68.6358 11.26 67.6958 11.26C67.0758 11.26 66.4458 11.43 65.8058 11.77C65.1858 12.09 64.6158 12.54 64.0958 13.12L64.0958 19.57C64.0958 20.17 64.1358 20.61 64.2158 20.89C64.3158 21.17 64.4958 21.37 64.7558 21.49C65.0158 21.59 65.4158 21.64 65.9558 21.64C66.0158 21.64 66.0458 21.7 66.0458 21.82C66.0458 21.94 66.0158 22 65.9558 22C65.4958 22 65.1358 21.99 64.8758 21.97L63.2558 21.94L61.6058 21.97C61.3458 21.99 60.9858 22 60.5258 22C60.4658 22 60.4358 21.94 60.4358 21.82C60.4358 21.7 60.4658 21.64 60.5258 21.64C61.0658 21.64 61.4658 21.59 61.7258 21.49C61.9858 21.37 62.1558 21.17 62.2358 20.89C62.3358 20.61 62.3858 20.17 62.3858 19.57V13.63C62.3858 12.95 62.3058 12.46 62.1458 12.16C61.9858 11.86 61.7158 11.71 61.3358 11.71C61.0158 11.71 60.4758 11.86 59.7158 12.16H59.6558C59.5758 12.16 59.5158 12.12 59.4758 12.04C59.4558 11.94 59.4858 11.87 59.5658 11.83L63.0458 10.18L63.2258 10.15C63.4058 10.15 63.5958 10.38 63.7958 10.84C63.9958 11.3 64.0958 11.89 64.0958 12.61C64.8558 11.73 65.6058 11.08 66.3458 10.66C67.1058 10.24 67.8858 10.03 68.6858 10.03C69.8058 10.03 70.6658 10.34 71.2658 10.96C71.8658 11.58 72.1658 12.49 72.1658 13.69L72.1658 19.57C72.1658 20.17 72.2058 20.61 72.2858 20.89C72.3858 21.17 72.5658 21.37 72.8258 21.49C73.0858 21.59 73.4858 21.64 74.0258 21.64ZM82.2338 21.28C83.3138 21.3 84.1838 21.36 84.8438 21.46C85.5038 21.54 86.1138 21.8 86.6738 22.24C87.2338 22.68 87.5138 23.38 87.5138 24.34C87.5138 25.42 87.1638 26.42 86.4638 27.34C85.7638 28.28 84.8338 29.02 83.6738 29.56C82.5338 30.12 81.3338 30.4 80.0738 30.4C78.6938 30.4 77.6038 30.09 76.8038 29.47C76.0238 28.87 75.6338 28.08 75.6338 27.1C75.6338 25.62 76.6638 24.16 78.7238 22.72C77.9638 22.62 77.3838 22.41 76.9838 22.09C76.5838 21.79 76.3838 21.33 76.3838 20.71C76.3838 20.11 76.5538 19.58 76.8938 19.12C77.2338 18.64 77.7838 18.1 78.5438 17.5C77.8638 17.16 77.3338 16.69 76.9538 16.09C76.5738 15.49 76.3838 14.83 76.3838 14.11C76.3838 12.99 76.8238 12.06 77.7038 11.32C78.6038 10.58 79.7538 10.21 81.1538 10.21C82.4538 10.21 83.4938 10.52 84.2738 11.14C84.8138 10.82 85.3338 10.58 85.8338 10.42C86.3538 10.26 86.9038 10.18 87.4838 10.18C87.5238 10.18 87.5538 10.25 87.5738 10.39C87.6138 10.53 87.6338 10.68 87.6338 10.84C87.6338 11.08 87.6038 11.32 87.5438 11.56C87.5038 11.8 87.4438 11.9 87.3638 11.86C87.0238 11.72 86.6938 11.61 86.3738 11.53C86.0738 11.45 85.7338 11.41 85.3538 11.41C85.1538 11.41 84.9138 11.43 84.6338 11.47C85.3138 12.21 85.6538 13.07 85.6538 14.05C85.6538 14.75 85.4538 15.41 85.0538 16.03C84.6738 16.63 84.1238 17.11 83.4038 17.47C82.6838 17.83 81.8638 18.01 80.9438 18.01C80.2438 18.01 79.5938 17.9 78.9938 17.68C78.5938 18.02 78.3038 18.34 78.1238 18.64C77.9638 18.94 77.8838 19.27 77.8838 19.63C77.8838 20.07 78.0138 20.41 78.2738 20.65C78.5538 20.87 79.0038 21.03 79.6238 21.13C80.2438 21.23 81.1138 21.28 82.2338 21.28ZM80.4338 10.66C78.9738 10.66 78.2438 11.57 78.2438 13.39C78.2438 14.29 78.4038 15.06 78.7238 15.7C79.0438 16.32 79.4538 16.79 79.9538 17.11C80.4538 17.41 80.9738 17.56 81.5138 17.56C82.1938 17.56 82.7338 17.33 83.1338 16.87C83.5538 16.39 83.7638 15.67 83.7638 14.71C83.7638 13.47 83.4438 12.49 82.8038 11.77C82.1638 11.03 81.3738 10.66 80.4338 10.66ZM81.3038 29.5C82.6838 29.5 83.8138 29.13 84.6938 28.39C85.5738 27.67 86.0138 26.7 86.0138 25.48C86.0138 24.68 85.8138 24.09 85.4138 23.71C85.0338 23.35 84.5238 23.12 83.8838 23.02C83.2438 22.92 82.3538 22.87 81.2138 22.87C80.7338 22.87 80.1338 22.85 79.4138 22.81C78.7538 23.23 78.2438 23.69 77.8838 24.19C77.5438 24.71 77.3738 25.35 77.3738 26.11C77.3738 27.15 77.7138 27.97 78.3938 28.57C79.0938 29.19 80.0638 29.5 81.3038 29.5ZM91.0032 22.33C90.6032 22.33 90.2832 22.21 90.0432 21.97C89.8032 21.73 89.6832 21.41 89.6832 21.01C89.6832 20.63 89.8032 20.33 90.0432 20.11C90.2832 19.89 90.6032 19.78 91.0032 19.78C91.4232 19.78 91.7432 19.89 91.9632 20.11C92.2032 20.33 92.3232 20.63 92.3232 21.01C92.3232 21.41 92.2032 21.73 91.9632 21.97C91.7432 22.21 91.4232 22.33 91.0032 22.33Z" fill="#F5D38E"/>
</svg>
