<svg width="266" height="52" viewBox="0 0 266 52" fill="none" xmlns="http://www.w3.org/2000/svg">
<rect x="0.5" y="0.5" width="265" height="51" rx="25.5" fill="white"/>
<rect x="0.5" y="0.5" width="265" height="51" rx="25.5" stroke="#0D554A"/>
<path d="M104.86 33L109.324 20.04H111.079L115.543 33H114.166L109.927 20.778H110.449L106.237 33H104.86ZM106.849 29.859V28.617L113.545 28.617V29.859L106.849 29.859ZM120.939 33.27C120.033 33.27 119.259 33.045 118.617 32.595C117.975 32.139 117.483 31.524 117.141 30.75C116.799 29.976 116.628 29.103 116.628 28.131C116.628 27.165 116.796 26.295 117.132 25.521C117.474 24.747 117.963 24.135 118.599 23.685C119.235 23.235 119.997 23.01 120.885 23.01C121.797 23.01 122.565 23.232 123.189 23.676C123.813 24.12 124.284 24.729 124.602 25.503C124.926 26.271 125.088 27.147 125.088 28.131C125.088 29.097 124.929 29.97 124.611 30.75C124.293 31.524 123.825 32.139 123.207 32.595C122.589 33.045 121.833 33.27 120.939 33.27ZM121.074 32.037C121.764 32.037 122.334 31.869 122.784 31.533C123.234 31.197 123.57 30.735 123.792 30.147C124.014 29.553 124.125 28.881 124.125 28.131C124.125 27.369 124.014 26.697 123.792 26.115C123.57 25.527 123.234 25.068 122.784 24.738C122.34 24.408 121.779 24.243 121.101 24.243C120.405 24.243 119.829 24.414 119.373 24.756C118.917 25.098 118.578 25.563 118.356 26.151C118.14 26.739 118.032 27.399 118.032 28.131C118.032 28.869 118.143 29.535 118.365 30.129C118.593 30.717 118.932 31.182 119.382 31.524C119.832 31.866 120.396 32.037 121.074 32.037ZM124.125 33V25.683H123.981V20.04H125.313V33H124.125ZM131.609 33.27C130.703 33.27 129.929 33.045 129.287 32.595C128.645 32.139 128.153 31.524 127.811 30.75C127.469 29.976 127.298 29.103 127.298 28.131C127.298 27.165 127.466 26.295 127.802 25.521C128.144 24.747 128.633 24.135 129.269 23.685C129.905 23.235 130.667 23.01 131.555 23.01C132.467 23.01 133.235 23.232 133.859 23.676C134.483 24.12 134.954 24.729 135.272 25.503C135.596 26.271 135.758 27.147 135.758 28.131C135.758 29.097 135.599 29.97 135.281 30.75C134.963 31.524 134.495 32.139 133.877 32.595C133.259 33.045 132.503 33.27 131.609 33.27ZM131.744 32.037C132.434 32.037 133.004 31.869 133.454 31.533C133.904 31.197 134.24 30.735 134.462 30.147C134.684 29.553 134.795 28.881 134.795 28.131C134.795 27.369 134.684 26.697 134.462 26.115C134.24 25.527 133.904 25.068 133.454 24.738C133.01 24.408 132.449 24.243 131.771 24.243C131.075 24.243 130.499 24.414 130.043 24.756C129.587 25.098 129.248 25.563 129.026 26.151C128.81 26.739 128.702 27.399 128.702 28.131C128.702 28.869 128.813 29.535 129.035 30.129C129.263 30.717 129.602 31.182 130.052 31.524C130.502 31.866 131.066 32.037 131.744 32.037ZM134.795 33V25.683H134.651V20.04H135.983V33H134.795ZM147.404 33C146.858 33.114 146.318 33.159 145.784 33.135C145.256 33.111 144.782 32.997 144.362 32.793C143.948 32.589 143.633 32.271 143.417 31.839C143.243 31.479 143.147 31.116 143.129 30.75C143.117 30.378 143.111 29.955 143.111 29.481V20.58L144.425 20.58V29.427C144.425 29.835 144.428 30.177 144.434 30.453C144.446 30.723 144.509 30.963 144.623 31.173C144.839 31.575 145.181 31.815 145.649 31.893C146.123 31.971 146.708 31.953 147.404 31.839V33ZM141.032 24.414V23.28L147.404 23.28V24.414L141.032 24.414ZM153.026 33.27C152.06 33.27 151.235 33.051 150.551 32.613C149.867 32.175 149.342 31.569 148.976 30.795C148.61 30.021 148.427 29.133 148.427 28.131C148.427 27.111 148.613 26.217 148.985 25.449C149.357 24.681 149.885 24.084 150.569 23.658C151.259 23.226 152.078 23.01 153.026 23.01C153.998 23.01 154.826 23.229 155.51 23.667C156.2 24.099 156.725 24.702 157.085 25.476C157.451 26.244 157.634 27.129 157.634 28.131C157.634 29.151 157.451 30.048 157.085 30.822C156.719 31.59 156.191 32.19 155.501 32.622C154.811 33.054 153.986 33.27 153.026 33.27ZM153.026 32.001C154.106 32.001 154.91 31.644 155.438 30.93C155.966 30.21 156.23 29.277 156.23 28.131C156.23 26.955 155.963 26.019 155.429 25.323C154.901 24.627 154.1 24.279 153.026 24.279C152.3 24.279 151.7 24.444 151.226 24.774C150.758 25.098 150.407 25.551 150.173 26.133C149.945 26.709 149.831 27.375 149.831 28.131C149.831 29.301 150.101 30.24 150.641 30.948C151.181 31.65 151.976 32.001 153.026 32.001ZM167.588 33.27C166.694 33.27 165.938 33.045 165.32 32.595C164.702 32.139 164.234 31.524 163.916 30.75C163.598 29.97 163.439 29.097 163.439 28.131C163.439 27.147 163.598 26.271 163.916 25.503C164.24 24.729 164.714 24.12 165.338 23.676C165.962 23.232 166.73 23.01 167.642 23.01C168.53 23.01 169.292 23.235 169.928 23.685C170.564 24.135 171.05 24.747 171.386 25.521C171.728 26.295 171.899 27.165 171.899 28.131C171.899 29.103 171.728 29.976 171.386 30.75C171.044 31.524 170.552 32.139 169.91 32.595C169.268 33.045 168.494 33.27 167.588 33.27ZM163.214 33V20.04H164.546V25.683H164.402V33H163.214ZM167.453 32.037C168.131 32.037 168.695 31.866 169.145 31.524C169.595 31.182 169.931 30.717 170.153 30.129C170.381 29.535 170.495 28.869 170.495 28.131C170.495 27.399 170.384 26.739 170.162 26.151C169.94 25.563 169.601 25.098 169.145 24.756C168.695 24.414 168.122 24.243 167.426 24.243C166.748 24.243 166.184 24.408 165.734 24.738C165.29 25.068 164.957 25.527 164.735 26.115C164.513 26.697 164.402 27.369 164.402 28.131C164.402 28.881 164.513 29.553 164.735 30.147C164.957 30.735 165.293 31.197 165.743 31.533C166.193 31.869 166.763 32.037 167.453 32.037ZM176.656 33.27C175.924 33.27 175.309 33.138 174.811 32.874C174.319 32.61 173.95 32.259 173.704 31.821C173.458 31.383 173.335 30.906 173.335 30.39C173.335 29.862 173.44 29.412 173.65 29.04C173.866 28.662 174.157 28.353 174.523 28.113C174.895 27.873 175.324 27.69 175.81 27.564C176.302 27.444 176.845 27.339 177.439 27.249C178.039 27.153 178.624 27.072 179.194 27.006C179.77 26.934 180.274 26.865 180.706 26.799L180.238 27.087C180.256 26.127 180.07 25.416 179.68 24.954C179.29 24.492 178.612 24.261 177.646 24.261C176.98 24.261 176.416 24.411 175.954 24.711C175.498 25.011 175.177 25.485 174.991 26.133L173.704 25.755C173.926 24.885 174.373 24.21 175.045 23.73C175.717 23.25 176.59 23.01 177.664 23.01C178.552 23.01 179.305 23.178 179.923 23.514C180.547 23.844 180.988 24.324 181.246 24.954C181.366 25.236 181.444 25.551 181.48 25.899C181.516 26.247 181.534 26.601 181.534 26.961V33H180.355V30.561L180.697 30.705C180.367 31.539 179.854 32.175 179.158 32.613C178.462 33.051 177.628 33.27 176.656 33.27ZM176.809 32.127C177.427 32.127 177.967 32.016 178.429 31.794C178.891 31.572 179.263 31.269 179.545 30.885C179.827 30.495 180.01 30.057 180.094 29.571C180.166 29.259 180.205 28.917 180.211 28.545C180.217 28.167 180.22 27.885 180.22 27.699L180.724 27.96C180.274 28.02 179.785 28.08 179.257 28.14C178.735 28.2 178.219 28.269 177.709 28.347C177.205 28.425 176.749 28.518 176.341 28.626C176.065 28.704 175.798 28.815 175.54 28.959C175.282 29.097 175.069 29.283 174.901 29.517C174.739 29.751 174.658 30.042 174.658 30.39C174.658 30.672 174.727 30.945 174.865 31.209C175.009 31.473 175.237 31.692 175.549 31.866C175.867 32.04 176.287 32.127 176.809 32.127ZM187.738 37.59C187.24 37.59 186.748 37.515 186.262 37.365C185.782 37.221 185.338 36.99 184.93 36.672C184.522 36.36 184.18 35.952 183.904 35.448L185.101 34.782C185.371 35.322 185.749 35.709 186.235 35.943C186.727 36.183 187.228 36.303 187.738 36.303C188.44 36.303 189.007 36.171 189.439 35.907C189.877 35.649 190.195 35.265 190.393 34.755C190.591 34.245 190.687 33.609 190.681 32.847V30.255H190.834V23.28H192.013V32.865C192.013 33.141 192.004 33.405 191.986 33.657C191.974 33.915 191.947 34.167 191.905 34.413C191.791 35.139 191.554 35.736 191.194 36.204C190.84 36.672 190.372 37.02 189.79 37.248C189.214 37.476 188.53 37.59 187.738 37.59ZM187.648 33.27C186.742 33.27 185.968 33.045 185.326 32.595C184.684 32.139 184.192 31.524 183.85 30.75C183.508 29.976 183.337 29.103 183.337 28.131C183.337 27.165 183.505 26.295 183.841 25.521C184.183 24.747 184.672 24.135 185.308 23.685C185.944 23.235 186.706 23.01 187.594 23.01C188.506 23.01 189.274 23.232 189.898 23.676C190.522 24.12 190.993 24.729 191.311 25.503C191.635 26.271 191.797 27.147 191.797 28.131C191.797 29.097 191.638 29.97 191.32 30.75C191.002 31.524 190.534 32.139 189.916 32.595C189.298 33.045 188.542 33.27 187.648 33.27ZM187.783 32.037C188.473 32.037 189.043 31.869 189.493 31.533C189.943 31.197 190.279 30.735 190.501 30.147C190.723 29.553 190.834 28.881 190.834 28.131C190.834 27.369 190.723 26.697 190.501 26.115C190.279 25.527 189.943 25.068 189.493 24.738C189.049 24.408 188.488 24.243 187.81 24.243C187.114 24.243 186.538 24.414 186.082 24.756C185.626 25.098 185.287 25.563 185.065 26.151C184.849 26.739 184.741 27.399 184.741 28.131C184.741 28.869 184.852 29.535 185.074 30.129C185.302 30.717 185.641 31.182 186.091 31.524C186.541 31.866 187.105 32.037 187.783 32.037Z" fill="#0D554A"/>
<path d="M83.5 23H85.5V20H88.5V18H85.5V15H83.5V18H80.5V20L83.5 20V23ZM79.5 32C78.4 32 77.51 32.9 77.51 34C77.51 35.1 78.4 36 79.5 36C80.6 36 81.5 35.1 81.5 34C81.5 32.9 80.6 32 79.5 32ZM89.5 32C88.4 32 87.51 32.9 87.51 34C87.51 35.1 88.4 36 89.5 36C90.6 36 91.5 35.1 91.5 34C91.5 32.9 90.6 32 89.5 32ZM79.67 28.75L79.7 28.63L80.6 27L88.05 27C88.8 27 89.46 26.59 89.8 25.97L93.66 18.96L91.92 18H91.91L90.81 20L88.05 25L81.03 25L80.9 24.73L78.66 20L77.71 18L76.77 16H73.5V18H75.5L79.1 25.59L77.75 28.04C77.59 28.32 77.5 28.65 77.5 29C77.5 30.1 78.4 31 79.5 31L91.5 31V29L79.92 29C79.79 29 79.67 28.89 79.67 28.75Z" fill="#0D554A"/>
</svg>
