<svg width="266" height="52" viewBox="0 0 266 52" fill="none" xmlns="http://www.w3.org/2000/svg">
<rect width="266" height="52" rx="26" fill="#0D554A"/>
<path d="M99.26 33V20.04H104.264C104.99 20.04 105.623 20.19 106.163 20.49C106.703 20.79 107.123 21.195 107.423 21.705C107.723 22.209 107.873 22.767 107.873 23.379C107.873 24.075 107.687 24.696 107.315 25.242C106.943 25.782 106.445 26.157 105.821 26.367L105.803 25.926C106.643 26.166 107.303 26.586 107.783 27.186C108.263 27.786 108.503 28.512 108.503 29.364C108.503 30.114 108.344 30.762 108.026 31.308C107.708 31.848 107.261 32.265 106.685 32.559C106.109 32.853 105.44 33 104.678 33H99.26ZM100.592 31.731H104.354C104.882 31.731 105.356 31.638 105.776 31.452C106.196 31.26 106.526 30.99 106.766 30.642C107.012 30.294 107.135 29.874 107.135 29.382C107.135 28.902 107.024 28.47 106.802 28.086C106.58 27.702 106.277 27.396 105.893 27.168C105.515 26.934 105.083 26.817 104.597 26.817H100.592V31.731ZM100.592 25.566H104.255C104.669 25.566 105.047 25.473 105.389 25.287C105.731 25.095 106.001 24.834 106.199 24.504C106.403 24.174 106.505 23.793 106.505 23.361C106.505 22.749 106.292 22.251 105.866 21.867C105.446 21.483 104.909 21.291 104.255 21.291H100.592V25.566ZM114.016 33.243C113.434 33.243 112.924 33.153 112.486 32.973C112.054 32.793 111.685 32.55 111.379 32.244C111.079 31.938 110.836 31.59 110.65 31.2C110.464 30.804 110.329 30.387 110.245 29.949C110.161 29.505 110.119 29.064 110.119 28.626V23.28H111.451V28.239C111.451 28.773 111.502 29.268 111.604 29.724C111.706 30.18 111.868 30.579 112.09 30.921C112.318 31.257 112.609 31.518 112.963 31.704C113.323 31.89 113.758 31.983 114.268 31.983C114.736 31.983 115.147 31.902 115.501 31.74C115.861 31.578 116.161 31.347 116.401 31.047C116.647 30.741 116.833 30.372 116.959 29.94C117.085 29.502 117.148 29.01 117.148 28.464L118.084 28.671C118.084 29.667 117.91 30.504 117.562 31.182C117.214 31.86 116.734 32.373 116.122 32.721C115.51 33.069 114.808 33.243 114.016 33.243ZM117.283 33V30.606H117.148V23.28H118.471V33H117.283ZM122.373 37.32L124.254 32.217L124.281 33.729L120.024 23.28H121.428L124.92 32.019H124.344L127.566 23.28H128.916L123.696 37.32H122.373ZM141.102 33V28.041C141.102 27.501 141.051 27.006 140.949 26.556C140.847 26.1 140.682 25.704 140.454 25.368C140.232 25.026 139.941 24.762 139.581 24.576C139.227 24.39 138.795 24.297 138.285 24.297C137.817 24.297 137.403 24.378 137.043 24.54C136.689 24.702 136.389 24.936 136.143 25.242C135.903 25.542 135.72 25.908 135.594 26.34C135.468 26.772 135.405 27.264 135.405 27.816L134.469 27.609C134.469 26.613 134.643 25.776 134.991 25.098C135.339 24.42 135.819 23.907 136.431 23.559C137.043 23.211 137.745 23.037 138.537 23.037C139.119 23.037 139.626 23.127 140.058 23.307C140.496 23.487 140.865 23.73 141.165 24.036C141.471 24.342 141.717 24.693 141.903 25.089C142.089 25.479 142.224 25.896 142.308 26.34C142.392 26.778 142.434 27.216 142.434 27.654V33H141.102ZM134.073 33V23.28H135.27V25.674H135.405V33L134.073 33ZM148.776 33.27C147.81 33.27 146.985 33.051 146.301 32.613C145.617 32.175 145.092 31.569 144.726 30.795C144.36 30.021 144.177 29.133 144.177 28.131C144.177 27.111 144.363 26.217 144.735 25.449C145.107 24.681 145.635 24.084 146.319 23.658C147.009 23.226 147.828 23.01 148.776 23.01C149.748 23.01 150.576 23.229 151.26 23.667C151.95 24.099 152.475 24.702 152.835 25.476C153.201 26.244 153.384 27.129 153.384 28.131C153.384 29.151 153.201 30.048 152.835 30.822C152.469 31.59 151.941 32.19 151.251 32.622C150.561 33.054 149.736 33.27 148.776 33.27ZM148.776 32.001C149.856 32.001 150.66 31.644 151.188 30.93C151.716 30.21 151.98 29.277 151.98 28.131C151.98 26.955 151.713 26.019 151.179 25.323C150.651 24.627 149.85 24.279 148.776 24.279C148.05 24.279 147.45 24.444 146.976 24.774C146.508 25.098 146.157 25.551 145.923 26.133C145.695 26.709 145.581 27.375 145.581 28.131C145.581 29.301 145.851 30.24 146.391 30.948C146.931 31.65 147.726 32.001 148.776 32.001ZM157.088 33L154.118 23.271L155.441 23.28L157.745 30.831L160.058 23.28H161.264L163.577 30.831L165.899 23.28L167.213 23.28L164.243 33H163.091L160.661 25.26L158.24 33H157.088Z" fill="white"/>
</svg>
