<svg width="266" height="45" viewBox="0 0 266 45" fill="none" xmlns="http://www.w3.org/2000/svg">
<path d="M0 44H266" stroke="#9095A0"/>
<path d="M1.12 28V16.48H4.616C4.73867 16.48 4.94667 16.4827 5.24 16.488C5.53867 16.4933 5.824 16.5147 6.096 16.552C6.97067 16.6747 7.70133 17 8.288 17.528C8.87467 18.056 9.31467 18.728 9.608 19.544C9.90133 20.36 10.048 21.2587 10.048 22.24C10.048 23.2213 9.90133 24.12 9.608 24.936C9.31467 25.752 8.87467 26.424 8.288 26.952C7.70133 27.48 6.97067 27.8053 6.096 27.928C5.82933 27.96 5.544 27.9813 5.24 27.992C4.936 27.9973 4.728 28 4.616 28H1.12ZM2.336 26.872H4.616C4.83467 26.872 5.06933 26.8667 5.32 26.856C5.576 26.84 5.79467 26.8133 5.976 26.776C6.648 26.6587 7.18933 26.3867 7.6 25.96C8.016 25.5333 8.32 25 8.512 24.36C8.704 23.7147 8.8 23.008 8.8 22.24C8.8 21.4667 8.704 20.7573 8.512 20.112C8.32 19.4667 8.016 18.9333 7.6 18.512C7.184 18.0907 6.64267 17.8213 5.976 17.704C5.79467 17.6667 5.57333 17.6427 5.312 17.632C5.056 17.616 4.824 17.608 4.616 17.608H2.336V26.872ZM15.526 28.24C14.6833 28.24 13.9527 28.0533 13.334 27.68C12.7207 27.3067 12.2433 26.7813 11.902 26.104C11.5607 25.4267 11.39 24.632 11.39 23.72C11.39 22.776 11.558 21.96 11.894 21.272C12.23 20.584 12.702 20.0533 13.31 19.68C13.9233 19.3067 14.646 19.12 15.478 19.12C16.3313 19.12 17.0593 19.3173 17.662 19.712C18.2647 20.1013 18.7207 20.6613 19.03 21.392C19.3393 22.1227 19.4807 22.9947 19.454 24.008H18.254V23.592C18.2327 22.472 17.99 21.6267 17.526 21.056C17.0673 20.4853 16.3953 20.2 15.51 20.2C14.582 20.2 13.87 20.5013 13.374 21.104C12.8833 21.7067 12.638 22.5653 12.638 23.68C12.638 24.768 12.8833 25.6133 13.374 26.216C13.87 26.8133 14.5713 27.112 15.478 27.112C16.0967 27.112 16.6353 26.9707 17.094 26.688C17.558 26.4 17.9233 25.9867 18.19 25.448L19.286 25.872C18.9447 26.624 18.4407 27.208 17.774 27.624C17.1127 28.0347 16.3633 28.24 15.526 28.24ZM12.222 24.008V23.024H18.822V24.008H12.222ZM21.3894 28V16.24H22.5654V28H21.3894ZM25.1238 17.72V16.4H26.2998V17.72H25.1238ZM25.1238 28V19.36H26.2998V28H25.1238ZM31.0341 28L27.8981 19.36H29.0901L31.6421 26.464L34.1781 19.36H35.3861L32.2501 28H31.0341ZM40.1666 28.24C39.324 28.24 38.5933 28.0533 37.9746 27.68C37.3613 27.3067 36.884 26.7813 36.5426 26.104C36.2013 25.4267 36.0306 24.632 36.0306 23.72C36.0306 22.776 36.1986 21.96 36.5346 21.272C36.8706 20.584 37.3426 20.0533 37.9506 19.68C38.564 19.3067 39.2866 19.12 40.1186 19.12C40.972 19.12 41.7 19.3173 42.3026 19.712C42.9053 20.1013 43.3613 20.6613 43.6706 21.392C43.98 22.1227 44.1213 22.9947 44.0946 24.008H42.8946V23.592C42.8733 22.472 42.6306 21.6267 42.1666 21.056C41.708 20.4853 41.036 20.2 40.1506 20.2C39.2226 20.2 38.5106 20.5013 38.0146 21.104C37.524 21.7067 37.2786 22.5653 37.2786 23.68C37.2786 24.768 37.524 25.6133 38.0146 26.216C38.5106 26.8133 39.212 27.112 40.1186 27.112C40.7373 27.112 41.276 26.9707 41.7346 26.688C42.1986 26.4 42.564 25.9867 42.8306 25.448L43.9266 25.872C43.5853 26.624 43.0813 27.208 42.4146 27.624C41.7533 28.0347 41.004 28.24 40.1666 28.24ZM36.8626 24.008V23.024H43.4626V24.008H36.8626ZM45.87 28V19.36H46.926V21.44L46.718 21.168C46.814 20.912 46.9393 20.6773 47.094 20.464C47.2487 20.2453 47.4167 20.0667 47.598 19.928C47.822 19.7307 48.0833 19.5813 48.382 19.48C48.6807 19.3733 48.982 19.312 49.286 19.296C49.59 19.2747 49.8673 19.296 50.118 19.36V20.464C49.8033 20.384 49.4593 20.3653 49.086 20.408C48.7127 20.4507 48.3687 20.6 48.054 20.856C47.766 21.08 47.55 21.3493 47.406 21.664C47.262 21.9733 47.166 22.304 47.118 22.656C47.07 23.0027 47.046 23.3467 47.046 23.688V28H45.87ZM52.7582 31.84L54.4303 27.304L54.4543 28.648L50.6702 19.36H51.9183L55.0223 27.128H54.5103L57.3743 19.36H58.5743L53.9343 31.84H52.7582Z" fill="#171A1F"/>
<path d="M249.841 17.8334L248.5 19.1743L256 26.6743L263.5 19.1743L262.159 17.8334L256 23.9924L249.841 17.8334Z" fill="#171A1F"/>
</svg>
