<svg width="266" height="45" viewBox="0 0 266 45" fill="none" xmlns="http://www.w3.org/2000/svg">
<path d="M0 44H266" stroke="#9095A0"/>
<path d="M3.592 28L0.264 16.48H1.488L4.184 25.992L6.864 16.488L8.096 16.48L10.792 25.992L13.472 16.48H14.704L11.384 28H10.2L7.48 18.552L4.776 28H3.592ZM17.842 28.24C17.1913 28.24 16.6447 28.1227 16.202 27.888C15.7647 27.6533 15.4367 27.3413 15.218 26.952C14.9993 26.5627 14.89 26.1387 14.89 25.68C14.89 25.2107 14.9833 24.8107 15.17 24.48C15.362 24.144 15.6207 23.8693 15.946 23.656C16.2767 23.4427 16.658 23.28 17.09 23.168C17.5273 23.0613 18.01 22.968 18.538 22.888C19.0713 22.8027 19.5913 22.7307 20.098 22.672C20.61 22.608 21.058 22.5467 21.442 22.488L21.026 22.744C21.042 21.8907 20.8767 21.2587 20.53 20.848C20.1833 20.4373 19.5807 20.232 18.722 20.232C18.13 20.232 17.6287 20.3653 17.218 20.632C16.8127 20.8987 16.5273 21.32 16.362 21.896L15.218 21.56C15.4153 20.7867 15.8127 20.1867 16.41 19.76C17.0073 19.3333 17.7833 19.12 18.738 19.12C19.5273 19.12 20.1967 19.2693 20.746 19.568C21.3007 19.8613 21.6927 20.288 21.922 20.848C22.0287 21.0987 22.098 21.3787 22.13 21.688C22.162 21.9973 22.178 22.312 22.178 22.632V28H21.13V25.832L21.434 25.96C21.1407 26.7013 20.6847 27.2667 20.066 27.656C19.4473 28.0453 18.706 28.24 17.842 28.24ZM17.978 27.224C18.5273 27.224 19.0073 27.1253 19.418 26.928C19.8287 26.7307 20.1593 26.4613 20.41 26.12C20.6607 25.7733 20.8233 25.384 20.898 24.952C20.962 24.6747 20.9967 24.3707 21.002 24.04C21.0073 23.704 21.01 23.4533 21.01 23.288L21.458 23.52C21.058 23.5733 20.6233 23.6267 20.154 23.68C19.69 23.7333 19.2313 23.7947 18.778 23.864C18.33 23.9333 17.9247 24.016 17.562 24.112C17.3167 24.1813 17.0793 24.28 16.85 24.408C16.6207 24.5307 16.4313 24.696 16.282 24.904C16.138 25.112 16.066 25.3707 16.066 25.68C16.066 25.9307 16.1273 26.1733 16.25 26.408C16.378 26.6427 16.5807 26.8373 16.858 26.992C17.1407 27.1467 17.514 27.224 17.978 27.224ZM24.2606 28V19.36H25.3166V21.44L25.1086 21.168C25.2046 20.912 25.33 20.6773 25.4846 20.464C25.6393 20.2453 25.8073 20.0667 25.9886 19.928C26.2126 19.7307 26.474 19.5813 26.7726 19.48C27.0713 19.3733 27.3726 19.312 27.6766 19.296C27.9806 19.2747 28.258 19.296 28.5086 19.36V20.464C28.194 20.384 27.85 20.3653 27.4766 20.408C27.1033 20.4507 26.7593 20.6 26.4446 20.856C26.1566 21.08 25.9406 21.3493 25.7966 21.664C25.6526 21.9733 25.5566 22.304 25.5086 22.656C25.4606 23.0027 25.4366 23.3467 25.4366 23.688V28H24.2606ZM30.0263 28V19.36H31.0823V21.44L30.8743 21.168C30.9703 20.912 31.0956 20.6773 31.2503 20.464C31.4049 20.2453 31.5729 20.0667 31.7543 19.928C31.9783 19.7307 32.2396 19.5813 32.5383 19.48C32.8369 19.3733 33.1383 19.312 33.4423 19.296C33.7463 19.2747 34.0236 19.296 34.2743 19.36V20.464C33.9596 20.384 33.6156 20.3653 33.2423 20.408C32.8689 20.4507 32.5249 20.6 32.2103 20.856C31.9223 21.08 31.7063 21.3493 31.5623 21.664C31.4183 21.9733 31.3223 22.304 31.2743 22.656C31.2263 23.0027 31.2023 23.3467 31.2023 23.688V28H30.0263ZM37.9358 28.24C37.2851 28.24 36.7384 28.1227 36.2958 27.888C35.8584 27.6533 35.5304 27.3413 35.3118 26.952C35.0931 26.5627 34.9838 26.1387 34.9838 25.68C34.9838 25.2107 35.0771 24.8107 35.2638 24.48C35.4558 24.144 35.7144 23.8693 36.0398 23.656C36.3704 23.4427 36.7518 23.28 37.1838 23.168C37.6211 23.0613 38.1038 22.968 38.6318 22.888C39.1651 22.8027 39.6851 22.7307 40.1918 22.672C40.7038 22.608 41.1518 22.5467 41.5358 22.488L41.1198 22.744C41.1358 21.8907 40.9704 21.2587 40.6238 20.848C40.2771 20.4373 39.6744 20.232 38.8158 20.232C38.2238 20.232 37.7224 20.3653 37.3118 20.632C36.9064 20.8987 36.6211 21.32 36.4557 21.896L35.3118 21.56C35.5091 20.7867 35.9064 20.1867 36.5038 19.76C37.1011 19.3333 37.8771 19.12 38.8318 19.12C39.6211 19.12 40.2904 19.2693 40.8398 19.568C41.3944 19.8613 41.7864 20.288 42.0158 20.848C42.1224 21.0987 42.1918 21.3787 42.2238 21.688C42.2558 21.9973 42.2718 22.312 42.2718 22.632V28H41.2238V25.832L41.5278 25.96C41.2344 26.7013 40.7784 27.2667 40.1598 27.656C39.5411 28.0453 38.7998 28.24 37.9358 28.24ZM38.0718 27.224C38.6211 27.224 39.1011 27.1253 39.5118 26.928C39.9224 26.7307 40.2531 26.4613 40.5038 26.12C40.7544 25.7733 40.9171 25.384 40.9918 24.952C41.0558 24.6747 41.0904 24.3707 41.0958 24.04C41.1011 23.704 41.1038 23.4533 41.1038 23.288L41.5518 23.52C41.1518 23.5733 40.7171 23.6267 40.2478 23.68C39.7838 23.7333 39.3251 23.7947 38.8718 23.864C38.4238 23.9333 38.0184 24.016 37.6558 24.112C37.4104 24.1813 37.1731 24.28 36.9438 24.408C36.7144 24.5307 36.5251 24.696 36.3758 24.904C36.2318 25.112 36.1598 25.3707 36.1598 25.68C36.1598 25.9307 36.2211 26.1733 36.3438 26.408C36.4718 26.6427 36.6744 26.8373 36.9518 26.992C37.2344 27.1467 37.6078 27.224 38.0718 27.224ZM50.5944 28V23.592C50.5944 23.112 50.549 22.672 50.4584 22.272C50.3677 21.8667 50.221 21.5147 50.0184 21.216C49.821 20.912 49.5624 20.6773 49.2424 20.512C48.9277 20.3467 48.5437 20.264 48.0904 20.264C47.6744 20.264 47.3064 20.336 46.9864 20.48C46.6717 20.624 46.405 20.832 46.1864 21.104C45.973 21.3707 45.8104 21.696 45.6984 22.08C45.5864 22.464 45.5304 22.9013 45.5304 23.392L44.6984 23.208C44.6984 22.3227 44.853 21.5787 45.1624 20.976C45.4717 20.3733 45.8984 19.9173 46.4424 19.608C46.9864 19.2987 47.6104 19.144 48.3144 19.144C48.8317 19.144 49.2824 19.224 49.6664 19.384C50.0557 19.544 50.3837 19.76 50.6504 20.032C50.9224 20.304 51.141 20.616 51.3064 20.968C51.4717 21.3147 51.5917 21.6853 51.6664 22.08C51.741 22.4693 51.7784 22.8587 51.7784 23.248V28H50.5944ZM44.3464 28V19.36H45.4104V21.488H45.5304V28H44.3464ZM58.5584 28C58.073 28.1013 57.593 28.1413 57.1184 28.12C56.649 28.0987 56.2277 27.9973 55.8544 27.816C55.4864 27.6347 55.2064 27.352 55.0144 26.968C54.8597 26.648 54.7744 26.3253 54.7584 26C54.7477 25.6693 54.7424 25.2933 54.7424 24.872V16.96H55.9104V24.824C55.9104 25.1867 55.913 25.4907 55.9184 25.736C55.929 25.976 55.985 26.1893 56.0864 26.376C56.2784 26.7333 56.5824 26.9467 56.9984 27.016C57.4197 27.0853 57.9397 27.0693 58.5584 26.968V28ZM52.8944 20.368V19.36H58.5584V20.368H52.8944ZM61.2582 31.84L62.9303 27.304L62.9543 28.648L59.1702 19.36H60.4183L63.5223 27.128H63.0103L65.8743 19.36H67.0743L62.4343 31.84H61.2582Z" fill="#171A1F"/>
<path d="M249.841 17.8334L248.5 19.1743L256 26.6743L263.5 19.1743L262.159 17.8334L256 23.9924L249.841 17.8334Z" fill="#171A1F"/>
</svg>
