<svg width="266" height="45" viewBox="0 0 266 45" fill="none" xmlns="http://www.w3.org/2000/svg">
<path d="M0 44H266" stroke="#9095A0"/>
<path d="M1.12 28V16.48H5.568C5.68 16.48 5.80533 16.4853 5.944 16.496C6.088 16.5013 6.232 16.5173 6.376 16.544C6.97867 16.6347 7.488 16.8453 7.904 17.176C8.32533 17.5013 8.64267 17.912 8.856 18.408C9.07467 18.904 9.184 19.4533 9.184 20.056C9.184 20.6533 9.07467 21.2 8.856 21.696C8.63733 22.192 8.31733 22.6053 7.896 22.936C7.48 23.2613 6.97333 23.4693 6.376 23.56C6.232 23.5813 6.088 23.5973 5.944 23.608C5.80533 23.6187 5.68 23.624 5.568 23.624H2.296V28H1.12ZM2.296 22.504H5.536C5.632 22.504 5.744 22.4987 5.872 22.488C6 22.4773 6.12533 22.4587 6.248 22.432C6.64267 22.3467 6.96533 22.184 7.216 21.944C7.472 21.704 7.66133 21.4187 7.784 21.088C7.912 20.7573 7.976 20.4133 7.976 20.056C7.976 19.6987 7.912 19.3547 7.784 19.024C7.66133 18.688 7.472 18.4 7.216 18.16C6.96533 17.92 6.64267 17.7573 6.248 17.672C6.12533 17.6453 6 17.6293 5.872 17.624C5.744 17.6133 5.632 17.608 5.536 17.608H2.296V22.504ZM12.8733 28.24C12.2226 28.24 11.6759 28.1227 11.2333 27.888C10.7959 27.6533 10.4679 27.3413 10.2493 26.952C10.0306 26.5627 9.92125 26.1387 9.92125 25.68C9.92125 25.2107 10.0146 24.8107 10.2013 24.48C10.3933 24.144 10.6519 23.8693 10.9773 23.656C11.3079 23.4427 11.6893 23.28 12.1213 23.168C12.5586 23.0613 13.0413 22.968 13.5693 22.888C14.1026 22.8027 14.6226 22.7307 15.1293 22.672C15.6413 22.608 16.0893 22.5467 16.4733 22.488L16.0573 22.744C16.0733 21.8907 15.9079 21.2587 15.5613 20.848C15.2146 20.4373 14.6119 20.232 13.7533 20.232C13.1613 20.232 12.6599 20.3653 12.2493 20.632C11.8439 20.8987 11.5586 21.32 11.3932 21.896L10.2493 21.56C10.4466 20.7867 10.8439 20.1867 11.4413 19.76C12.0386 19.3333 12.8146 19.12 13.7693 19.12C14.5586 19.12 15.2279 19.2693 15.7773 19.568C16.3319 19.8613 16.7239 20.288 16.9533 20.848C17.0599 21.0987 17.1293 21.3787 17.1613 21.688C17.1933 21.9973 17.2093 22.312 17.2093 22.632V28H16.1613V25.832L16.4653 25.96C16.1719 26.7013 15.7159 27.2667 15.0973 27.656C14.4786 28.0453 13.7373 28.24 12.8733 28.24ZM13.0093 27.224C13.5586 27.224 14.0386 27.1253 14.4493 26.928C14.8599 26.7307 15.1906 26.4613 15.4413 26.12C15.6919 25.7733 15.8546 25.384 15.9293 24.952C15.9933 24.6747 16.0279 24.3707 16.0333 24.04C16.0386 23.704 16.0413 23.4533 16.0413 23.288L16.4893 23.52C16.0893 23.5733 15.6546 23.6267 15.1853 23.68C14.7213 23.7333 14.2626 23.7947 13.8093 23.864C13.3613 23.9333 12.9559 24.016 12.5933 24.112C12.3479 24.1813 12.1106 24.28 11.8813 24.408C11.6519 24.5307 11.4626 24.696 11.3133 24.904C11.1693 25.112 11.0973 25.3707 11.0973 25.68C11.0973 25.9307 11.1586 26.1733 11.2812 26.408C11.4093 26.6427 11.6119 26.8373 11.8893 26.992C12.1719 27.1467 12.5453 27.224 13.0093 27.224ZM20.0395 31.84L21.7115 27.304L21.7355 28.648L17.9515 19.36H19.1995L22.3035 27.128H21.7915L24.6555 19.36H25.8555L21.2155 31.84H20.0395ZM37.549 28L37.557 22.328C37.557 21.6613 37.3703 21.1387 36.997 20.76C36.629 20.376 36.1597 20.184 35.589 20.184C35.2637 20.184 34.9463 20.2587 34.637 20.408C34.3277 20.5573 34.0717 20.7973 33.869 21.128C33.6717 21.4587 33.573 21.8907 33.573 22.424L32.877 22.224C32.861 21.6053 32.981 21.064 33.237 20.6C33.4983 20.136 33.8557 19.776 34.309 19.52C34.7677 19.2587 35.285 19.128 35.861 19.128C36.7303 19.128 37.4263 19.3973 37.949 19.936C38.4717 20.4693 38.733 21.192 38.733 22.104L38.725 28H37.549ZM27.237 28V19.36H28.293V21.488H28.421V28H27.237ZM32.405 28L32.413 22.408C32.413 21.72 32.229 21.1787 31.861 20.784C31.4983 20.384 31.0183 20.184 30.421 20.184C29.8237 20.184 29.341 20.3893 28.973 20.8C28.605 21.2053 28.421 21.7467 28.421 22.424L27.717 22.04C27.717 21.4853 27.8477 20.9893 28.109 20.552C28.3703 20.1093 28.7277 19.7627 29.181 19.512C29.6343 19.256 30.149 19.128 30.725 19.128C31.2743 19.128 31.7623 19.2453 32.189 19.48C32.621 19.7147 32.9597 20.056 33.205 20.504C33.4503 20.952 33.573 21.496 33.573 22.136L33.565 28H32.405ZM44.4166 28.24C43.574 28.24 42.8433 28.0533 42.2246 27.68C41.6113 27.3067 41.134 26.7813 40.7926 26.104C40.4513 25.4267 40.2806 24.632 40.2806 23.72C40.2806 22.776 40.4486 21.96 40.7846 21.272C41.1206 20.584 41.5926 20.0533 42.2006 19.68C42.814 19.3067 43.5366 19.12 44.3686 19.12C45.222 19.12 45.95 19.3173 46.5526 19.712C47.1553 20.1013 47.6113 20.6613 47.9206 21.392C48.23 22.1227 48.3713 22.9947 48.3446 24.008H47.1446V23.592C47.1233 22.472 46.8806 21.6267 46.4166 21.056C45.958 20.4853 45.286 20.2 44.4006 20.2C43.4726 20.2 42.7606 20.5013 42.2646 21.104C41.774 21.7067 41.5286 22.5653 41.5286 23.68C41.5286 24.768 41.774 25.6133 42.2646 26.216C42.7606 26.8133 43.462 27.112 44.3686 27.112C44.9873 27.112 45.526 26.9707 45.9846 26.688C46.4486 26.4 46.814 25.9867 47.0806 25.448L48.1766 25.872C47.8353 26.624 47.3313 27.208 46.6646 27.624C46.0033 28.0347 45.254 28.24 44.4166 28.24ZM41.1126 24.008V23.024H47.7126V24.008H41.1126ZM56.1256 28V23.592C56.1256 23.112 56.0803 22.672 55.9896 22.272C55.899 21.8667 55.7523 21.5147 55.5496 21.216C55.3523 20.912 55.0936 20.6773 54.7736 20.512C54.459 20.3467 54.075 20.264 53.6216 20.264C53.2056 20.264 52.8376 20.336 52.5176 20.48C52.203 20.624 51.9363 20.832 51.7176 21.104C51.5043 21.3707 51.3416 21.696 51.2296 22.08C51.1176 22.464 51.0616 22.9013 51.0616 23.392L50.2296 23.208C50.2296 22.3227 50.3843 21.5787 50.6936 20.976C51.003 20.3733 51.4296 19.9173 51.9736 19.608C52.5176 19.2987 53.1416 19.144 53.8456 19.144C54.363 19.144 54.8136 19.224 55.1976 19.384C55.587 19.544 55.915 19.76 56.1816 20.032C56.4536 20.304 56.6723 20.616 56.8376 20.968C57.003 21.3147 57.123 21.6853 57.1976 22.08C57.2723 22.4693 57.3096 22.8587 57.3096 23.248V28H56.1256ZM49.8776 28V19.36H50.9416V21.488H51.0616V28H49.8776ZM64.0896 28C63.6043 28.1013 63.1243 28.1413 62.6496 28.12C62.1803 28.0987 61.759 27.9973 61.3856 27.816C61.0176 27.6347 60.7376 27.352 60.5456 26.968C60.391 26.648 60.3056 26.3253 60.2896 26C60.279 25.6693 60.2736 25.2933 60.2736 24.872V16.96H61.4416V24.824C61.4416 25.1867 61.4443 25.4907 61.4496 25.736C61.4603 25.976 61.5163 26.1893 61.6176 26.376C61.8096 26.7333 62.1136 26.9467 62.5296 27.016C62.951 27.0853 63.471 27.0693 64.0896 26.968V28ZM58.4256 20.368V19.36H64.0896V20.368H58.4256Z" fill="#171A1F"/>
<path d="M249.841 17.8334L248.5 19.1743L256 26.6743L263.5 19.1743L262.159 17.8334L256 23.9924L249.841 17.8334Z" fill="#171A1F"/>
</svg>
