<svg width="266" height="45" viewBox="0 0 266 45" fill="none" xmlns="http://www.w3.org/2000/svg">
<path d="M0 44H266" stroke="#9095A0"/>
<path d="M5.784 28.24C4.63733 28.24 3.66933 27.9867 2.88 27.48C2.09067 26.968 1.49333 26.2613 1.088 25.36C0.682667 24.4587 0.48 23.4187 0.48 22.24C0.48 21.0613 0.682667 20.0213 1.088 19.12C1.49333 18.2187 2.09067 17.5147 2.88 17.008C3.66933 16.496 4.63733 16.24 5.784 16.24C7.12267 16.24 8.216 16.584 9.064 17.272C9.912 17.9547 10.4933 18.872 10.808 20.024L9.608 20.336C9.36267 19.424 8.92267 18.7013 8.288 18.168C7.65333 17.6347 6.81867 17.368 5.784 17.368C4.88267 17.368 4.13333 17.5733 3.536 17.984C2.93867 18.3947 2.488 18.968 2.184 19.704C1.88533 20.4347 1.73067 21.28 1.72 22.24C1.71467 23.2 1.86133 24.0453 2.16 24.776C2.464 25.5067 2.91733 26.08 3.52 26.496C4.128 26.9067 4.88267 27.112 5.784 27.112C6.81867 27.112 7.65333 26.8453 8.288 26.312C8.92267 25.7733 9.36267 25.0507 9.608 24.144L10.808 24.456C10.4933 25.608 9.912 26.528 9.064 27.216C8.216 27.8987 7.12267 28.24 5.784 28.24ZM15.0451 28.24C14.3945 28.24 13.8478 28.1227 13.4051 27.888C12.9678 27.6533 12.6398 27.3413 12.4211 26.952C12.2025 26.5627 12.0931 26.1387 12.0931 25.68C12.0931 25.2107 12.1865 24.8107 12.3731 24.48C12.5651 24.144 12.8238 23.8693 13.1491 23.656C13.4798 23.4427 13.8611 23.28 14.2931 23.168C14.7305 23.0613 15.2131 22.968 15.7411 22.888C16.2745 22.8027 16.7945 22.7307 17.3011 22.672C17.8131 22.608 18.2611 22.5467 18.6451 22.488L18.2291 22.744C18.2451 21.8907 18.0798 21.2587 17.7331 20.848C17.3865 20.4373 16.7838 20.232 15.9251 20.232C15.3331 20.232 14.8318 20.3653 14.4211 20.632C14.0158 20.8987 13.7305 21.32 13.5651 21.896L12.4211 21.56C12.6185 20.7867 13.0158 20.1867 13.6131 19.76C14.2105 19.3333 14.9865 19.12 15.9411 19.12C16.7305 19.12 17.3998 19.2693 17.9491 19.568C18.5038 19.8613 18.8958 20.288 19.1251 20.848C19.2318 21.0987 19.3011 21.3787 19.3331 21.688C19.3651 21.9973 19.3811 22.312 19.3811 22.632V28H18.3331V25.832L18.6371 25.96C18.3438 26.7013 17.8878 27.2667 17.2691 27.656C16.6505 28.0453 15.9091 28.24 15.0451 28.24ZM15.1811 27.224C15.7305 27.224 16.2105 27.1253 16.6211 26.928C17.0318 26.7307 17.3625 26.4613 17.6131 26.12C17.8638 25.7733 18.0265 25.384 18.1011 24.952C18.1651 24.6747 18.1998 24.3707 18.2051 24.04C18.2105 23.704 18.2131 23.4533 18.2131 23.288L18.6611 23.52C18.2611 23.5733 17.8265 23.6267 17.3571 23.68C16.8931 23.7333 16.4345 23.7947 15.9811 23.864C15.5331 23.9333 15.1278 24.016 14.7651 24.112C14.5198 24.1813 14.2825 24.28 14.0531 24.408C13.8238 24.5307 13.6345 24.696 13.4851 24.904C13.3411 25.112 13.2691 25.3707 13.2691 25.68C13.2691 25.9307 13.3305 26.1733 13.4531 26.408C13.5811 26.6427 13.7838 26.8373 14.0611 26.992C14.3438 27.1467 14.7171 27.224 15.1811 27.224ZM21.4638 28V19.36H22.5198V21.44L22.3118 21.168C22.4078 20.912 22.5331 20.6773 22.6878 20.464C22.8424 20.2453 23.0104 20.0667 23.1918 19.928C23.4158 19.7307 23.6771 19.5813 23.9758 19.48C24.2744 19.3733 24.5758 19.312 24.8798 19.296C25.1838 19.2747 25.4611 19.296 25.7118 19.36V20.464C25.3971 20.384 25.0531 20.3653 24.6798 20.408C24.3064 20.4507 23.9624 20.6 23.6478 20.856C23.3598 21.08 23.1438 21.3493 22.9998 21.664C22.8558 21.9733 22.7598 22.304 22.7118 22.656C22.6638 23.0027 22.6398 23.3467 22.6398 23.688V28H21.4638ZM30.7291 28.24C29.8865 28.24 29.1558 28.0533 28.5371 27.68C27.9238 27.3067 27.4465 26.7813 27.1051 26.104C26.7638 25.4267 26.5931 24.632 26.5931 23.72C26.5931 22.776 26.7611 21.96 27.0971 21.272C27.4331 20.584 27.9051 20.0533 28.5131 19.68C29.1265 19.3067 29.8491 19.12 30.6811 19.12C31.5345 19.12 32.2625 19.3173 32.8651 19.712C33.4678 20.1013 33.9238 20.6613 34.2331 21.392C34.5425 22.1227 34.6838 22.9947 34.6571 24.008H33.4571V23.592C33.4358 22.472 33.1931 21.6267 32.7291 21.056C32.2705 20.4853 31.5985 20.2 30.7131 20.2C29.7851 20.2 29.0731 20.5013 28.5771 21.104C28.0865 21.7067 27.8411 22.5653 27.8411 23.68C27.8411 24.768 28.0865 25.6133 28.5771 26.216C29.0731 26.8133 29.7745 27.112 30.6811 27.112C31.2998 27.112 31.8385 26.9707 32.2971 26.688C32.7611 26.4 33.1265 25.9867 33.3931 25.448L34.4891 25.872C34.1478 26.624 33.6438 27.208 32.9771 27.624C32.3158 28.0347 31.5665 28.24 30.7291 28.24ZM27.4251 24.008V23.024H34.0251V24.008H27.4251Z" fill="#171A1F"/>
<path d="M249.841 17.8334L248.5 19.1743L256 26.6743L263.5 19.1743L262.159 17.8334L256 23.9924L249.841 17.8334Z" fill="#171A1F"/>
</svg>
