<svg width="35" height="13" viewBox="0 0 35 13" fill="none" xmlns="http://www.w3.org/2000/svg">
<path d="M5.784 12.24C4.63733 12.24 3.66933 11.9867 2.88 11.48C2.09067 10.968 1.49333 10.2613 1.088 9.36C0.682667 8.45867 0.48 7.41867 0.48 6.24C0.48 5.06133 0.682667 4.02133 1.088 3.12C1.49333 2.21867 2.09067 1.51467 2.88 1.008C3.66933 0.496 4.63733 0.24 5.784 0.24C7.12267 0.24 8.216 0.584 9.064 1.272C9.912 1.95467 10.4933 2.872 10.808 4.024L9.608 4.336C9.36267 3.424 8.92267 2.70133 8.288 2.168C7.65333 1.63467 6.81867 1.368 5.784 1.368C4.88267 1.368 4.13333 1.57333 3.536 1.984C2.93867 2.39467 2.488 2.968 2.184 3.704C1.88533 4.43467 1.73067 5.28 1.72 6.24C1.71467 7.2 1.86133 8.04533 2.16 8.776C2.464 9.50667 2.91733 10.08 3.52 10.496C4.128 10.9067 4.88267 11.112 5.784 11.112C6.81867 11.112 7.65333 10.8453 8.288 10.312C8.92267 9.77333 9.36267 9.05067 9.608 8.144L10.808 8.456C10.4933 9.608 9.912 10.528 9.064 11.216C8.216 11.8987 7.12267 12.24 5.784 12.24ZM15.0451 12.24C14.3945 12.24 13.8478 12.1227 13.4051 11.888C12.9678 11.6533 12.6398 11.3413 12.4211 10.952C12.2025 10.5627 12.0931 10.1387 12.0931 9.68C12.0931 9.21067 12.1865 8.81067 12.3731 8.48C12.5651 8.144 12.8238 7.86933 13.1491 7.656C13.4798 7.44267 13.8611 7.28 14.2931 7.168C14.7305 7.06133 15.2131 6.968 15.7411 6.888C16.2745 6.80267 16.7945 6.73067 17.3011 6.672C17.8131 6.608 18.2611 6.54667 18.6451 6.488L18.2291 6.744C18.2451 5.89067 18.0798 5.25867 17.7331 4.848C17.3865 4.43733 16.7838 4.232 15.9251 4.232C15.3331 4.232 14.8318 4.36533 14.4211 4.632C14.0158 4.89867 13.7305 5.32 13.5651 5.896L12.4211 5.56C12.6185 4.78667 13.0158 4.18667 13.6131 3.76C14.2105 3.33333 14.9865 3.12 15.9411 3.12C16.7305 3.12 17.3998 3.26933 17.9491 3.568C18.5038 3.86133 18.8958 4.288 19.1251 4.848C19.2318 5.09867 19.3011 5.37867 19.3331 5.688C19.3651 5.99733 19.3811 6.312 19.3811 6.632V12H18.3331V9.832L18.6371 9.96C18.3438 10.7013 17.8878 11.2667 17.2691 11.656C16.6505 12.0453 15.9091 12.24 15.0451 12.24ZM15.1811 11.224C15.7305 11.224 16.2105 11.1253 16.6211 10.928C17.0318 10.7307 17.3625 10.4613 17.6131 10.12C17.8638 9.77333 18.0265 9.384 18.1011 8.952C18.1651 8.67467 18.1998 8.37067 18.2051 8.04C18.2105 7.704 18.2131 7.45333 18.2131 7.288L18.6611 7.52C18.2611 7.57333 17.8265 7.62667 17.3571 7.68C16.8931 7.73333 16.4345 7.79467 15.9811 7.864C15.5331 7.93333 15.1278 8.016 14.7651 8.112C14.5198 8.18133 14.2825 8.28 14.0531 8.408C13.8238 8.53067 13.6345 8.696 13.4851 8.904C13.3411 9.112 13.2691 9.37067 13.2691 9.68C13.2691 9.93067 13.3305 10.1733 13.4531 10.408C13.5811 10.6427 13.7838 10.8373 14.0611 10.992C14.3438 11.1467 14.7171 11.224 15.1811 11.224ZM21.4638 12V3.36H22.5198V5.44L22.3118 5.168C22.4078 4.912 22.5331 4.67733 22.6878 4.464C22.8424 4.24533 23.0104 4.06667 23.1918 3.928C23.4158 3.73067 23.6771 3.58133 23.9758 3.48C24.2744 3.37333 24.5758 3.312 24.8798 3.296C25.1838 3.27467 25.4611 3.296 25.7118 3.36V4.464C25.3971 4.384 25.0531 4.36533 24.6798 4.408C24.3064 4.45067 23.9624 4.6 23.6478 4.856C23.3598 5.08 23.1438 5.34933 22.9998 5.664C22.8558 5.97333 22.7598 6.304 22.7118 6.656C22.6638 7.00267 22.6398 7.34667 22.6398 7.688V12H21.4638ZM30.7291 12.24C29.8865 12.24 29.1558 12.0533 28.5371 11.68C27.9238 11.3067 27.4465 10.7813 27.1051 10.104C26.7638 9.42667 26.5931 8.632 26.5931 7.72C26.5931 6.776 26.7611 5.96 27.0971 5.272C27.4331 4.584 27.9051 4.05333 28.5131 3.68C29.1265 3.30667 29.8491 3.12 30.6811 3.12C31.5345 3.12 32.2625 3.31733 32.8651 3.712C33.4678 4.10133 33.9238 4.66133 34.2331 5.392C34.5425 6.12267 34.6838 6.99467 34.6571 8.008H33.4571V7.592C33.4358 6.472 33.1931 5.62667 32.7291 5.056C32.2705 4.48533 31.5985 4.2 30.7131 4.2C29.7851 4.2 29.0731 4.50133 28.5771 5.104C28.0865 5.70667 27.8411 6.56533 27.8411 7.68C27.8411 8.768 28.0865 9.61333 28.5771 10.216C29.0731 10.8133 29.7745 11.112 30.6811 11.112C31.2998 11.112 31.8385 10.9707 32.2971 10.688C32.7611 10.4 33.1265 9.98667 33.3931 9.448L34.4891 9.872C34.1478 10.624 33.6438 11.208 32.9771 11.624C32.3158 12.0347 31.5665 12.24 30.7291 12.24ZM27.4251 8.008V7.024H34.0251V8.008H27.4251Z" fill="#171A1F"/>
</svg>
