<svg width="58" height="16" viewBox="0 0 58 16" fill="none" xmlns="http://www.w3.org/2000/svg">
<path d="M0.12 12V0.48H3.616C3.73867 0.48 3.94667 0.482666 4.24 0.488C4.53867 0.493333 4.824 0.514666 5.096 0.551999C5.97067 0.674666 6.70133 0.999999 7.288 1.528C7.87467 2.056 8.31467 2.728 8.608 3.544C8.90133 4.36 9.048 5.25867 9.048 6.24C9.048 7.22133 8.90133 8.12 8.608 8.936C8.31467 9.752 7.87467 10.424 7.288 10.952C6.70133 11.48 5.97067 11.8053 5.096 11.928C4.82933 11.96 4.544 11.9813 4.24 11.992C3.936 11.9973 3.728 12 3.616 12H0.12ZM1.336 10.872H3.616C3.83467 10.872 4.06933 10.8667 4.32 10.856C4.576 10.84 4.79467 10.8133 4.976 10.776C5.648 10.6587 6.18933 10.3867 6.6 9.96C7.016 9.53333 7.32 9 7.512 8.36C7.704 7.71467 7.8 7.008 7.8 6.24C7.8 5.46667 7.704 4.75733 7.512 4.112C7.32 3.46667 7.016 2.93333 6.6 2.512C6.184 2.09067 5.64267 1.82133 4.976 1.704C4.79467 1.66667 4.57333 1.64267 4.312 1.632C4.056 1.616 3.824 1.608 3.616 1.608H1.336V10.872ZM14.526 12.24C13.6833 12.24 12.9527 12.0533 12.334 11.68C11.7207 11.3067 11.2433 10.7813 10.902 10.104C10.5607 9.42667 10.39 8.632 10.39 7.72C10.39 6.776 10.558 5.96 10.894 5.272C11.23 4.584 11.702 4.05333 12.31 3.68C12.9233 3.30667 13.646 3.12 14.478 3.12C15.3313 3.12 16.0593 3.31733 16.662 3.712C17.2647 4.10133 17.7207 4.66133 18.03 5.392C18.3393 6.12267 18.4807 6.99467 18.454 8.008H17.254V7.592C17.2327 6.472 16.99 5.62667 16.526 5.056C16.0673 4.48533 15.3953 4.2 14.51 4.2C13.582 4.2 12.87 4.50133 12.374 5.104C11.8833 5.70667 11.638 6.56533 11.638 7.68C11.638 8.768 11.8833 9.61333 12.374 10.216C12.87 10.8133 13.5713 11.112 14.478 11.112C15.0967 11.112 15.6353 10.9707 16.094 10.688C16.558 10.4 16.9233 9.98667 17.19 9.448L18.286 9.872C17.9447 10.624 17.4407 11.208 16.774 11.624C16.1127 12.0347 15.3633 12.24 14.526 12.24ZM11.222 8.008V7.024H17.822V8.008H11.222ZM20.3894 12V0.24H21.5654V12H20.3894ZM24.1238 1.72V0.4H25.2998V1.72H24.1238ZM24.1238 12V3.36H25.2998V12H24.1238ZM30.0341 12L26.8981 3.36H28.0901L30.6421 10.464L33.1781 3.36H34.3861L31.2501 12H30.0341ZM39.1666 12.24C38.324 12.24 37.5933 12.0533 36.9746 11.68C36.3613 11.3067 35.884 10.7813 35.5426 10.104C35.2013 9.42667 35.0306 8.632 35.0306 7.72C35.0306 6.776 35.1986 5.96 35.5346 5.272C35.8706 4.584 36.3426 4.05333 36.9506 3.68C37.564 3.30667 38.2866 3.12 39.1186 3.12C39.972 3.12 40.7 3.31733 41.3026 3.712C41.9053 4.10133 42.3613 4.66133 42.6706 5.392C42.98 6.12267 43.1213 6.99467 43.0946 8.008H41.8946V7.592C41.8733 6.472 41.6306 5.62667 41.1666 5.056C40.708 4.48533 40.036 4.2 39.1506 4.2C38.2226 4.2 37.5106 4.50133 37.0146 5.104C36.524 5.70667 36.2786 6.56533 36.2786 7.68C36.2786 8.768 36.524 9.61333 37.0146 10.216C37.5106 10.8133 38.212 11.112 39.1186 11.112C39.7373 11.112 40.276 10.9707 40.7346 10.688C41.1986 10.4 41.564 9.98667 41.8306 9.448L42.9266 9.872C42.5853 10.624 42.0813 11.208 41.4146 11.624C40.7533 12.0347 40.004 12.24 39.1666 12.24ZM35.8626 8.008V7.024H42.4626V8.008H35.8626ZM44.87 12V3.36H45.926V5.44L45.718 5.168C45.814 4.912 45.9393 4.67733 46.094 4.464C46.2487 4.24533 46.4167 4.06667 46.598 3.928C46.822 3.73067 47.0833 3.58133 47.382 3.48C47.6807 3.37333 47.982 3.312 48.286 3.296C48.59 3.27467 48.8673 3.296 49.118 3.36V4.464C48.8033 4.384 48.4593 4.36533 48.086 4.408C47.7127 4.45067 47.3687 4.6 47.054 4.856C46.766 5.08 46.55 5.34933 46.406 5.664C46.262 5.97333 46.166 6.304 46.118 6.656C46.07 7.00267 46.046 7.34667 46.046 7.688V12H44.87ZM51.7582 15.84L53.4303 11.304L53.4543 12.648L49.6702 3.36H50.9183L54.0223 11.128H53.5103L56.3743 3.36H57.5743L52.9343 15.84H51.7582Z" fill="#171A1F"/>
</svg>
