<svg width="64" height="16" viewBox="0 0 64 16" fill="none" xmlns="http://www.w3.org/2000/svg">
<path d="M0.12 12V0.48H4.568C4.68 0.48 4.80533 0.485333 4.944 0.495999C5.088 0.501333 5.232 0.517333 5.376 0.544C5.97867 0.634666 6.488 0.845333 6.904 1.176C7.32533 1.50133 7.64267 1.912 7.856 2.408C8.07467 2.904 8.184 3.45333 8.184 4.056C8.184 4.65333 8.07467 5.2 7.856 5.696C7.63733 6.192 7.31733 6.60533 6.896 6.936C6.48 7.26133 5.97333 7.46933 5.376 7.56C5.232 7.58133 5.088 7.59733 4.944 7.608C4.80533 7.61867 4.68 7.624 4.568 7.624H1.296V12H0.12ZM1.296 6.504H4.536C4.632 6.504 4.744 6.49867 4.872 6.488C5 6.47733 5.12533 6.45867 5.248 6.432C5.64267 6.34667 5.96533 6.184 6.216 5.944C6.472 5.704 6.66133 5.41867 6.784 5.088C6.912 4.75733 6.976 4.41333 6.976 4.056C6.976 3.69867 6.912 3.35467 6.784 3.024C6.66133 2.688 6.472 2.4 6.216 2.16C5.96533 1.92 5.64267 1.75733 5.248 1.672C5.12533 1.64533 5 1.62933 4.872 1.624C4.744 1.61333 4.632 1.608 4.536 1.608H1.296V6.504ZM11.8733 12.24C11.2226 12.24 10.6759 12.1227 10.2333 11.888C9.79592 11.6533 9.46792 11.3413 9.24925 10.952C9.03058 10.5627 8.92125 10.1387 8.92125 9.68C8.92125 9.21067 9.01458 8.81067 9.20125 8.48C9.39325 8.144 9.65192 7.86933 9.97725 7.656C10.3079 7.44267 10.6893 7.28 11.1213 7.168C11.5586 7.06133 12.0413 6.968 12.5693 6.888C13.1026 6.80267 13.6226 6.73067 14.1293 6.672C14.6413 6.608 15.0893 6.54667 15.4733 6.488L15.0573 6.744C15.0733 5.89067 14.9079 5.25867 14.5613 4.848C14.2146 4.43733 13.6119 4.232 12.7533 4.232C12.1613 4.232 11.6599 4.36533 11.2493 4.632C10.8439 4.89867 10.5586 5.32 10.3932 5.896L9.24925 5.56C9.44658 4.78667 9.84392 4.18667 10.4413 3.76C11.0386 3.33333 11.8146 3.12 12.7693 3.12C13.5586 3.12 14.2279 3.26933 14.7773 3.568C15.3319 3.86133 15.7239 4.288 15.9533 4.848C16.0599 5.09867 16.1293 5.37867 16.1613 5.688C16.1933 5.99733 16.2093 6.312 16.2093 6.632V12H15.1613V9.832L15.4653 9.96C15.1719 10.7013 14.7159 11.2667 14.0973 11.656C13.4786 12.0453 12.7373 12.24 11.8733 12.24ZM12.0093 11.224C12.5586 11.224 13.0386 11.1253 13.4493 10.928C13.8599 10.7307 14.1906 10.4613 14.4413 10.12C14.6919 9.77333 14.8546 9.384 14.9293 8.952C14.9933 8.67467 15.0279 8.37067 15.0333 8.04C15.0386 7.704 15.0413 7.45333 15.0413 7.288L15.4893 7.52C15.0893 7.57333 14.6546 7.62667 14.1853 7.68C13.7213 7.73333 13.2626 7.79467 12.8093 7.864C12.3613 7.93333 11.9559 8.016 11.5933 8.112C11.3479 8.18133 11.1106 8.28 10.8813 8.408C10.6519 8.53067 10.4626 8.696 10.3133 8.904C10.1693 9.112 10.0973 9.37067 10.0973 9.68C10.0973 9.93067 10.1586 10.1733 10.2812 10.408C10.4093 10.6427 10.6119 10.8373 10.8893 10.992C11.1719 11.1467 11.5453 11.224 12.0093 11.224ZM19.0395 15.84L20.7115 11.304L20.7355 12.648L16.9515 3.36H18.1995L21.3035 11.128H20.7915L23.6555 3.36H24.8555L20.2155 15.84H19.0395ZM36.549 12L36.557 6.328C36.557 5.66133 36.3703 5.13867 35.997 4.76C35.629 4.376 35.1597 4.184 34.589 4.184C34.2637 4.184 33.9463 4.25867 33.637 4.408C33.3277 4.55733 33.0717 4.79733 32.869 5.128C32.6717 5.45867 32.573 5.89067 32.573 6.424L31.877 6.224C31.861 5.60533 31.981 5.064 32.237 4.6C32.4983 4.136 32.8557 3.776 33.309 3.52C33.7677 3.25867 34.285 3.128 34.861 3.128C35.7303 3.128 36.4263 3.39733 36.949 3.936C37.4717 4.46933 37.733 5.192 37.733 6.104L37.725 12H36.549ZM26.237 12V3.36H27.293V5.488H27.421V12H26.237ZM31.405 12L31.413 6.408C31.413 5.72 31.229 5.17867 30.861 4.784C30.4983 4.384 30.0183 4.184 29.421 4.184C28.8237 4.184 28.341 4.38933 27.973 4.8C27.605 5.20533 27.421 5.74667 27.421 6.424L26.717 6.04C26.717 5.48533 26.8477 4.98933 27.109 4.552C27.3703 4.10933 27.7277 3.76267 28.181 3.512C28.6343 3.256 29.149 3.128 29.725 3.128C30.2743 3.128 30.7623 3.24533 31.189 3.48C31.621 3.71467 31.9597 4.056 32.205 4.504C32.4503 4.952 32.573 5.496 32.573 6.136L32.565 12H31.405ZM43.4166 12.24C42.574 12.24 41.8433 12.0533 41.2246 11.68C40.6113 11.3067 40.134 10.7813 39.7926 10.104C39.4513 9.42667 39.2806 8.632 39.2806 7.72C39.2806 6.776 39.4486 5.96 39.7846 5.272C40.1206 4.584 40.5926 4.05333 41.2006 3.68C41.814 3.30667 42.5366 3.12 43.3686 3.12C44.222 3.12 44.95 3.31733 45.5526 3.712C46.1553 4.10133 46.6113 4.66133 46.9206 5.392C47.23 6.12267 47.3713 6.99467 47.3446 8.008H46.1446V7.592C46.1233 6.472 45.8806 5.62667 45.4166 5.056C44.958 4.48533 44.286 4.2 43.4006 4.2C42.4726 4.2 41.7606 4.50133 41.2646 5.104C40.774 5.70667 40.5286 6.56533 40.5286 7.68C40.5286 8.768 40.774 9.61333 41.2646 10.216C41.7606 10.8133 42.462 11.112 43.3686 11.112C43.9873 11.112 44.526 10.9707 44.9846 10.688C45.4486 10.4 45.814 9.98667 46.0806 9.448L47.1766 9.872C46.8353 10.624 46.3313 11.208 45.6646 11.624C45.0033 12.0347 44.254 12.24 43.4166 12.24ZM40.1126 8.008V7.024H46.7126V8.008H40.1126ZM55.1256 12V7.592C55.1256 7.112 55.0803 6.672 54.9896 6.272C54.899 5.86667 54.7523 5.51467 54.5496 5.216C54.3523 4.912 54.0936 4.67733 53.7736 4.512C53.459 4.34667 53.075 4.264 52.6216 4.264C52.2056 4.264 51.8376 4.336 51.5176 4.48C51.203 4.624 50.9363 4.832 50.7176 5.104C50.5043 5.37067 50.3416 5.696 50.2296 6.08C50.1176 6.464 50.0616 6.90133 50.0616 7.392L49.2296 7.208C49.2296 6.32267 49.3843 5.57867 49.6936 4.976C50.003 4.37333 50.4296 3.91733 50.9736 3.608C51.5176 3.29867 52.1416 3.144 52.8456 3.144C53.363 3.144 53.8136 3.224 54.1976 3.384C54.587 3.544 54.915 3.76 55.1816 4.032C55.4536 4.304 55.6723 4.616 55.8376 4.968C56.003 5.31467 56.123 5.68533 56.1976 6.08C56.2723 6.46933 56.3096 6.85867 56.3096 7.248V12H55.1256ZM48.8776 12V3.36H49.9416V5.488H50.0616V12H48.8776ZM63.0896 12C62.6043 12.1013 62.1243 12.1413 61.6496 12.12C61.1803 12.0987 60.759 11.9973 60.3856 11.816C60.0176 11.6347 59.7376 11.352 59.5456 10.968C59.391 10.648 59.3056 10.3253 59.2896 10C59.279 9.66933 59.2736 9.29333 59.2736 8.872V0.959999H60.4416V8.824C60.4416 9.18667 60.4443 9.49067 60.4496 9.736C60.4603 9.976 60.5163 10.1893 60.6176 10.376C60.8096 10.7333 61.1136 10.9467 61.5296 11.016C61.951 11.0853 62.471 11.0693 63.0896 10.968V12ZM57.4256 4.368V3.36H63.0896V4.368H57.4256Z" fill="#171A1F"/>
</svg>
