<svg width="68" height="16" viewBox="0 0 68 16" fill="none" xmlns="http://www.w3.org/2000/svg">
<path d="M3.592 12L0.264 0.48H1.488L4.184 9.992L6.864 0.488L8.096 0.48L10.792 9.992L13.472 0.48H14.704L11.384 12H10.2L7.48 2.552L4.776 12H3.592ZM17.842 12.24C17.1913 12.24 16.6447 12.1227 16.202 11.888C15.7647 11.6533 15.4367 11.3413 15.218 10.952C14.9993 10.5627 14.89 10.1387 14.89 9.68C14.89 9.21067 14.9833 8.81067 15.17 8.48C15.362 8.144 15.6207 7.86933 15.946 7.656C16.2767 7.44267 16.658 7.28 17.09 7.168C17.5273 7.06133 18.01 6.968 18.538 6.888C19.0713 6.80267 19.5913 6.73067 20.098 6.672C20.61 6.608 21.058 6.54667 21.442 6.488L21.026 6.744C21.042 5.89067 20.8767 5.25867 20.53 4.848C20.1833 4.43733 19.5807 4.232 18.722 4.232C18.13 4.232 17.6287 4.36533 17.218 4.632C16.8127 4.89867 16.5273 5.32 16.362 5.896L15.218 5.56C15.4153 4.78667 15.8127 4.18667 16.41 3.76C17.0073 3.33333 17.7833 3.12 18.738 3.12C19.5273 3.12 20.1967 3.26933 20.746 3.568C21.3007 3.86133 21.6927 4.288 21.922 4.848C22.0287 5.09867 22.098 5.37867 22.13 5.688C22.162 5.99733 22.178 6.312 22.178 6.632V12H21.13V9.832L21.434 9.96C21.1407 10.7013 20.6847 11.2667 20.066 11.656C19.4473 12.0453 18.706 12.24 17.842 12.24ZM17.978 11.224C18.5273 11.224 19.0073 11.1253 19.418 10.928C19.8287 10.7307 20.1593 10.4613 20.41 10.12C20.6607 9.77333 20.8233 9.384 20.898 8.952C20.962 8.67467 20.9967 8.37067 21.002 8.04C21.0073 7.704 21.01 7.45333 21.01 7.288L21.458 7.52C21.058 7.57333 20.6233 7.62667 20.154 7.68C19.69 7.73333 19.2313 7.79467 18.778 7.864C18.33 7.93333 17.9247 8.016 17.562 8.112C17.3167 8.18133 17.0793 8.28 16.85 8.408C16.6207 8.53067 16.4313 8.696 16.282 8.904C16.138 9.112 16.066 9.37067 16.066 9.68C16.066 9.93067 16.1273 10.1733 16.25 10.408C16.378 10.6427 16.5807 10.8373 16.858 10.992C17.1407 11.1467 17.514 11.224 17.978 11.224ZM24.2606 12V3.36H25.3166V5.44L25.1086 5.168C25.2046 4.912 25.33 4.67733 25.4846 4.464C25.6393 4.24533 25.8073 4.06667 25.9886 3.928C26.2126 3.73067 26.474 3.58133 26.7726 3.48C27.0713 3.37333 27.3726 3.312 27.6766 3.296C27.9806 3.27467 28.258 3.296 28.5086 3.36V4.464C28.194 4.384 27.85 4.36533 27.4766 4.408C27.1033 4.45067 26.7593 4.6 26.4446 4.856C26.1566 5.08 25.9406 5.34933 25.7966 5.664C25.6526 5.97333 25.5566 6.304 25.5086 6.656C25.4606 7.00267 25.4366 7.34667 25.4366 7.688V12H24.2606ZM30.0263 12V3.36H31.0823V5.44L30.8743 5.168C30.9703 4.912 31.0956 4.67733 31.2503 4.464C31.4049 4.24533 31.5729 4.06667 31.7543 3.928C31.9783 3.73067 32.2396 3.58133 32.5383 3.48C32.8369 3.37333 33.1383 3.312 33.4423 3.296C33.7463 3.27467 34.0236 3.296 34.2743 3.36V4.464C33.9596 4.384 33.6156 4.36533 33.2423 4.408C32.8689 4.45067 32.5249 4.6 32.2103 4.856C31.9223 5.08 31.7063 5.34933 31.5623 5.664C31.4183 5.97333 31.3223 6.304 31.2743 6.656C31.2263 7.00267 31.2023 7.34667 31.2023 7.688V12H30.0263ZM37.9358 12.24C37.2851 12.24 36.7384 12.1227 36.2958 11.888C35.8584 11.6533 35.5304 11.3413 35.3118 10.952C35.0931 10.5627 34.9838 10.1387 34.9838 9.68C34.9838 9.21067 35.0771 8.81067 35.2638 8.48C35.4558 8.144 35.7144 7.86933 36.0398 7.656C36.3704 7.44267 36.7518 7.28 37.1838 7.168C37.6211 7.06133 38.1038 6.968 38.6318 6.888C39.1651 6.80267 39.6851 6.73067 40.1918 6.672C40.7038 6.608 41.1518 6.54667 41.5358 6.488L41.1198 6.744C41.1358 5.89067 40.9704 5.25867 40.6238 4.848C40.2771 4.43733 39.6744 4.232 38.8158 4.232C38.2238 4.232 37.7224 4.36533 37.3118 4.632C36.9064 4.89867 36.6211 5.32 36.4557 5.896L35.3118 5.56C35.5091 4.78667 35.9064 4.18667 36.5038 3.76C37.1011 3.33333 37.8771 3.12 38.8318 3.12C39.6211 3.12 40.2904 3.26933 40.8398 3.568C41.3944 3.86133 41.7864 4.288 42.0158 4.848C42.1224 5.09867 42.1918 5.37867 42.2238 5.688C42.2558 5.99733 42.2718 6.312 42.2718 6.632V12H41.2238V9.832L41.5278 9.96C41.2344 10.7013 40.7784 11.2667 40.1598 11.656C39.5411 12.0453 38.7998 12.24 37.9358 12.24ZM38.0718 11.224C38.6211 11.224 39.1011 11.1253 39.5118 10.928C39.9224 10.7307 40.2531 10.4613 40.5038 10.12C40.7544 9.77333 40.9171 9.384 40.9918 8.952C41.0558 8.67467 41.0904 8.37067 41.0958 8.04C41.1011 7.704 41.1038 7.45333 41.1038 7.288L41.5518 7.52C41.1518 7.57333 40.7171 7.62667 40.2478 7.68C39.7838 7.73333 39.3251 7.79467 38.8718 7.864C38.4238 7.93333 38.0184 8.016 37.6558 8.112C37.4104 8.18133 37.1731 8.28 36.9438 8.408C36.7144 8.53067 36.5251 8.696 36.3758 8.904C36.2318 9.112 36.1598 9.37067 36.1598 9.68C36.1598 9.93067 36.2211 10.1733 36.3438 10.408C36.4718 10.6427 36.6744 10.8373 36.9518 10.992C37.2344 11.1467 37.6078 11.224 38.0718 11.224ZM50.5944 12V7.592C50.5944 7.112 50.549 6.672 50.4584 6.272C50.3677 5.86667 50.221 5.51467 50.0184 5.216C49.821 4.912 49.5624 4.67733 49.2424 4.512C48.9277 4.34667 48.5437 4.264 48.0904 4.264C47.6744 4.264 47.3064 4.336 46.9864 4.48C46.6717 4.624 46.405 4.832 46.1864 5.104C45.973 5.37067 45.8104 5.696 45.6984 6.08C45.5864 6.464 45.5304 6.90133 45.5304 7.392L44.6984 7.208C44.6984 6.32267 44.853 5.57867 45.1624 4.976C45.4717 4.37333 45.8984 3.91733 46.4424 3.608C46.9864 3.29867 47.6104 3.144 48.3144 3.144C48.8317 3.144 49.2824 3.224 49.6664 3.384C50.0557 3.544 50.3837 3.76 50.6504 4.032C50.9224 4.304 51.141 4.616 51.3064 4.968C51.4717 5.31467 51.5917 5.68533 51.6664 6.08C51.741 6.46933 51.7784 6.85867 51.7784 7.248V12H50.5944ZM44.3464 12V3.36H45.4104V5.488H45.5304V12H44.3464ZM58.5584 12C58.073 12.1013 57.593 12.1413 57.1184 12.12C56.649 12.0987 56.2277 11.9973 55.8544 11.816C55.4864 11.6347 55.2064 11.352 55.0144 10.968C54.8597 10.648 54.7744 10.3253 54.7584 10C54.7477 9.66933 54.7424 9.29333 54.7424 8.872V0.959999H55.9104V8.824C55.9104 9.18667 55.913 9.49067 55.9184 9.736C55.929 9.976 55.985 10.1893 56.0864 10.376C56.2784 10.7333 56.5824 10.9467 56.9984 11.016C57.4197 11.0853 57.9397 11.0693 58.5584 10.968V12ZM52.8944 4.368V3.36H58.5584V4.368H52.8944ZM61.2582 15.84L62.9303 11.304L62.9543 12.648L59.1702 3.36H60.4183L63.5223 11.128H63.0103L65.8743 3.36H67.0743L62.4343 15.84H61.2582Z" fill="#171A1F"/>
</svg>
