<svg width="1440" height="247" viewBox="0 0 1440 247" fill="none" xmlns="http://www.w3.org/2000/svg">
<path d="M645.31 343.393C619.697 342.558 592.553 336.294 563.182 322.652C519.752 302.468 497.062 269.478 475.069 237.601C446.672 196.537 419.945 157.7 352.016 151.297C297.449 146.147 244.553 161.876 193.467 176.91C153.795 188.603 112.87 200.852 71.5279 203.079C62.8975 203.497 54.4062 203.636 45.915 203.358C-64.1922 199.878 -164.555 137.238 -250.859 77.7994L-250.72 77.5211C-222.741 89.4923 -194.762 105.361 -165.112 122.204C-130.173 142.11 -93.981 162.572 -56.9538 176.631C-15.1938 192.5 22.251 197.929 57.4686 193.196C98.5327 187.628 134.585 174.543 169.385 161.876C194.998 152.55 221.446 142.945 249.286 136.681C280.467 129.582 310.395 127.355 340.601 129.86C386.12 133.619 451.405 143.223 492.329 182.339C509.59 198.764 521.422 219.644 532.837 239.967C547.731 266.276 563.182 293.56 590.883 311.795C612.181 325.854 632.921 334.206 654.08 337.129C673.011 339.774 691.803 338.103 711.848 332.118C749.014 320.843 783.118 296.483 819.31 270.731C832.813 261.126 846.733 251.243 860.653 242.055C907.285 211.71 960.459 192.5 1011.96 173.987C1054.7 158.535 1098.96 142.527 1139.47 120.255C1173.57 101.463 1202.53 81.2795 1228 63.4619C1268.09 35.4827 1302.61 11.2618 1341.45 3.46665C1361.91 -0.709353 1382.51 -0.152536 1404.51 5.13706C1428.45 10.8443 1454.06 22.1194 1482.88 39.5194C1530.62 68.3338 1580.04 90.6059 1638.36 109.676C1690.56 126.659 1743.88 139.047 1800.39 152.271C1816.26 155.891 1832.55 159.788 1849.11 163.686C1859.41 166.191 1868.6 168.975 1877.51 171.759C1891.99 176.214 1905.49 180.39 1919.83 181.503C1935.56 182.756 1950.73 180.39 1967.29 173.847C1979.54 169.115 1989.7 159.371 1999.59 150.044C2011.56 138.63 2022.83 127.911 2036.06 128.329C2036.2 128.329 2036.2 128.329 2036.34 128.329C2045.8 128.747 2055.41 134.732 2065.99 146.843L2066.26 147.121L2065.85 146.982C2038.42 140.161 2017.96 158.257 1996.52 177.327C1981.91 190.273 1966.88 203.636 1948.5 210.457C1928.87 217.695 1909.25 221.315 1888.78 221.454C1870.55 221.593 1851.62 219.087 1828.93 213.659C1782.44 202.523 1732.18 188.324 1683.6 172.455C1631.12 155.473 1581.71 136.959 1540.51 119.003C1514.89 107.867 1492.9 96.7307 1473.41 86.9867C1433.88 67.0811 1402.56 51.3515 1367.9 48.4283C1349.94 46.8971 1331.43 48.9851 1311.24 54.5531C1289.95 60.5387 1266.28 70.7003 1238.72 85.5947C1182.34 116.219 1121.79 139.465 1063.19 162.015C1001.66 185.679 938.187 210.039 880.001 242.751C862.601 252.495 845.619 263.075 829.054 273.375C769.894 310.263 712.822 345.62 645.31 343.393ZM338.096 150.323C342.689 150.462 347.422 150.74 352.155 151.158C420.224 157.561 446.95 196.398 475.347 237.601C497.341 269.478 520.03 302.329 563.321 322.513C669.67 372.068 747.205 324.044 829.333 273.236C845.897 263.075 862.88 252.495 880.28 242.612C938.326 209.9 1001.94 185.401 1063.47 161.737C1122.07 139.187 1182.62 115.94 1239 85.3163C1266.56 70.4219 1290.22 60.2603 1311.52 54.2747C1331.71 48.7067 1350.22 46.6187 1368.18 48.1499C1402.84 51.0731 1434.16 66.8027 1473.69 86.7083C1493.18 96.4523 1515.17 107.588 1540.78 118.724C1581.99 136.681 1631.54 155.195 1683.88 172.177C1732.46 187.907 1782.85 202.244 1829.21 213.38C1851.76 218.809 1870.69 221.315 1888.92 221.036C1909.52 220.897 1929.01 217.278 1948.64 210.039C1966.88 203.358 1982.05 189.995 1996.52 177.049C2017.96 157.979 2038.28 140.022 2065.71 146.564C2055.41 134.871 2045.8 128.886 2036.61 128.468C2036.48 128.468 2036.48 128.468 2036.34 128.468C2023.11 128.051 2011.98 138.769 2000 150.183C1990.12 159.649 1979.96 169.254 1967.71 174.126C1951.01 180.668 1935.83 183.035 1920.1 181.782C1905.91 180.529 1892.26 176.353 1877.79 172.038C1868.88 169.254 1859.69 166.47 1849.39 163.964C1832.83 160.067 1816.54 156.169 1800.67 152.55C1744.16 139.465 1690.84 126.937 1638.64 109.955C1580.32 91.0235 1530.9 68.7515 1483.16 39.7979C1454.34 22.3979 1428.73 11.1226 1404.79 5.41544C1382.79 0.125839 1362.19 -0.430936 1341.87 3.74506C1303.17 11.5403 1268.51 35.7611 1228.56 63.7403C1203.08 81.5579 1174.13 101.881 1140.03 120.534C1099.52 142.806 1055.25 158.814 1012.52 174.265C961.155 192.779 907.842 211.988 861.349 242.334C847.429 251.382 833.509 261.404 820.006 271.009C783.814 296.761 749.71 321.121 712.405 332.396C692.36 338.521 673.429 340.052 654.497 337.407C633.339 334.345 612.598 326.132 591.161 311.934C563.461 293.699 548.009 266.415 532.976 239.967C521.561 219.783 509.729 198.903 492.469 182.478C451.544 143.363 386.398 133.897 340.88 130.139C310.673 127.633 280.745 129.86 249.565 136.959C221.725 143.363 195.277 152.828 169.664 162.155C134.725 174.822 98.6718 187.907 57.747 193.475C38.8158 195.98 19.8846 195.702 -0.438568 192.5C-18.3954 189.577 -36.909 184.566 -56.8146 176.91C-93.8418 162.851 -130.034 142.249 -164.973 122.483C-194.066 105.918 -221.767 90.3275 -249.328 78.3563C-156.76 142.11 -47.9057 209.204 71.6671 202.801C113.009 200.574 153.934 188.463 193.606 176.631C240.099 162.99 288.401 148.652 338.096 150.323Z" fill="#FBECCE" fill-opacity="0.4"/>
</svg>
